<?xml version="1.0" encoding="UTF-8"?>
<svg width="24" height="24" viewBox="0 0 24 24" fill="none" xmlns="http://www.w3.org/2000/svg">
    <path d="M9 19C4.58172 19 1 15.4183 1 11C1 6.58172 4.58172 3 9 3C13.4183 3 17 6.58172 17 11C17 11.9287 16.8417 12.8205 16.5479 13.6524L22.7086 19.8131C23.0991 20.2036 23.0991 20.8368 22.7086 21.2273C22.3181 21.6178 21.6849 21.6178 21.2944 21.2273L15.1337 15.0666C14.3018 15.3604 13.41 15.5187 12.4813 15.5187C12.4472 15.5187 12.4131 15.5185 12.3791 15.5182C11.9673 15.509 11.5669 15.4670 11.1796 15.3937C10.298 17.0345 9.65812 18.0555 9.25925 18.4544C9.18169 18.5319 9.09362 18.5906 8.99937 18.6279C8.89387 18.6692 8.78877 18.6897 8.68711 18.6897C8.43606 18.6897 8.19942 18.5897 8.03711 18.4274C7.71248 18.1028 7.67097 17.5743 7.93649 17.1956L9.11956 15.5597C8.31992 15.1738 7.60322 14.6461 7.00099 14.0086C6.84245 13.8501 6.69339 13.6804 6.55442 13.5005C5.67702 14.9869 5.17542 15.9567 5.05963 16.4099C4.95785 16.8093 4.63373 17.0998 4.22276 17.1561C3.81179 17.2125 3.41381 17.0249 3.21687 16.6596C2.18553 14.8539 1.79613 13.4892 2.05454 12.5657C2.31296 11.6421 3.34274 10.5262 5.14388 9.21796C5.04485 9.78203 5 10.3807 5 11C5 13.2091 6.79086 15 9 15C11.2091 15 13 13.2091 13 11C13 8.79086 11.2091 7 9 7C7.99018 7 7.07124 7.40232 6.37159 8.07159C6.97205 7.97177 7.54987 7.92817 8.10505 7.94073C9.33151 7.96763 10.3391 8.36806 11.1278 9.13195C11.5157 9.50877 11.5325 10.1414 11.1557 10.5293C10.7789 10.9172 10.1463 10.934 9.75845 10.5572C9.28111 10.0937 8.69512 9.84669 7.89472 9.82893C6.51724 9.79892 4.81507 10.3791 2.79044 11.5696C2.37419 11.8233 1.84382 11.6968 1.59006 11.2805C1.3363 10.8643 1.46287 10.3339 1.87912 10.0802C3.30927 9.22348 4.62254 8.63305 5.82895 8.31005C5.61872 8.01219 5.44007 7.68984 5.29816 7.34751C4.90413 6.40322 4.89685 5.33639 5.27634 4.38479C5.38474 4.08615 5.61558 3.85239 5.91284 3.74058C6.2101 3.62877 6.54197 3.64651 6.82334 3.78963C7.45559 4.09833 8.20571 4.25873 9.07373 4.27075C10.8501 4.29367 12.4092 4.9932 13.7508 6.37065C15.0835 7.73906 15.7831 9.29814 15.8061 11.0745C15.8179 11.9425 15.6575 12.6926 15.3488 13.3249C15.2056 13.6062 14.9719 13.8371 14.6906 13.9803C14.4094 14.1235 14.0775 14.1308 13.7913 14.0002C13.5051 13.8697 13.2923 13.6136 13.1935 13.3163C13.0947 13.0189 13.1379 12.6837 13.3134 12.4219C13.4303 12.2424 13.5092 11.9548 13.5043 11.5574C13.4895 10.4055 13.0473 9.37208 12.2195 8.52582C11.4006 7.68847 10.3672 7.24627 9.21533 7.23146C8.81793 7.22656 8.53031 7.30543 8.35082 7.42233C8.08902 7.59784 7.74383 7.64141 7.44657 7.53476C7.14931 7.42811 6.92922 7.18407 6.84575 6.87789C6.70251 6.35343 6.69723 5.82533 6.83559 5.32348C6.71983 5.5634 6.64397 5.82688 6.61311 6.11034C6.53355 6.81215 6.7259 7.55355 7.17525 8.20664C6.19774 8.72172 5.31413 9.35982 4.52442 10.1196C3.58114 11.0276 3.0461 11.8983 2.92929 12.3316C2.81249 12.765 3.02519 13.6494 3.81986 15.0506C4.07116 14.3454 4.65027 13.2017 5.55216 11.6731C5.69991 11.4273 5.95455 11.2729 6.23413 11.257C6.51371 11.2411 6.78331 11.3657 6.95591 11.5915C7.12315 11.8098 7.30255 12.0152 7.49346 12.2061C7.98791 12.7006 8.58033 13.1015 9.25925 13.3937C9.18169 13.4712 9.09362 13.5299 8.99937 13.5673C8.89387 13.6085 8.78877 13.629 8.68711 13.629C8.43606 13.629 8.19942 13.529 8.03711 13.3667C7.71248 13.0421 7.67097 12.5136 7.93649 12.1349L9.11956 10.499C9.07985 10.4997 9.03999 10.5 9 10.5C8.17157 10.5 7.5 9.82843 7.5 9C7.5 8.17157 8.17157 7.5 9 7.5C9.82843 7.5 10.5 8.17157 10.5 9C10.5 9.82843 9.82843 10.5 9 10.5Z" stroke="#565E6D" stroke-width="2" stroke-linecap="round" stroke-linejoin="round"/>
</svg>
