<?xml version="1.0" encoding="UTF-8"?>
<svg width="24" height="24" viewBox="0 0 24 24" fill="none" xmlns="http://www.w3.org/2000/svg">
    <path d="M22 4.01C21.14 4.5 20.19 4.84 19.19 5C18.41 4.12 17.3 3.5 16 3.5C13.47 3.5 11.42 5.56 11.42 8.09C11.42 8.47 11.46 8.84 11.54 9.19C7.7 9 4.26 7.16 2 4.31C1.61 5.03 1.39 5.86 1.39 6.75C1.39 8.43 2.2 9.91 3.4 10.77C2.7 10.75 2.03 10.57 1.44 10.27V10.33C1.44 12.57 3 14.44 5.03 14.89C4.65 15 4.25 15.06 3.83 15.06C3.54 15.06 3.26 15.03 2.99 14.98C3.55 16.82 5.24 18.16 7.23 18.2C5.67 19.44 3.69 20.19 1.54 20.19C1.17 20.19 0.81 20.17 0.45 20.13C2.46 21.45 4.85 22.23 7.41 22.23C16 22.23 20.67 15.13 20.67 8.99C20.67 8.77 20.67 8.55 20.66 8.34C21.53 7.69 22.28 6.89 22.89 5.97C22.09 6.37 21.23 6.63 20.33 6.75C21.25 6.15 21.95 5.24 22.3 4.14L22 4.01Z" stroke="#565E6D" stroke-width="2" stroke-linecap="round" stroke-linejoin="round"/>
</svg>
