<svg width="17" height="15" viewBox="0 0 17 15" fill="none" xmlns="http://www.w3.org/2000/svg">
<path d="M12.7494 5.95014C12.7494 4.82309 12.302 3.7422 11.5051 2.94518C10.708 2.14814 9.62652 1.70004 8.4993 1.70004C7.37218 1.7001 6.29133 2.14819 5.49433 2.94518C4.69735 3.74222 4.24919 4.823 4.24919 5.95014L4.24586 6.3187C4.20947 8.12492 3.90374 9.41601 3.42739 10.4244C2.92549 11.4868 2.25945 12.1727 1.69995 12.7503L15.2995 12.7503C14.7388 12.1724 14.0736 11.4861 13.5721 10.4244C13.0637 9.34852 12.7494 7.95117 12.7494 5.95014ZM14.4494 5.95014C14.4494 7.77318 14.735 8.90727 15.1085 9.69805C15.3894 10.2926 15.7355 10.7292 16.1295 11.1565L16.5388 11.5865L16.5571 11.6064C16.7788 11.8501 16.9251 12.1528 16.9779 12.478C17.0306 12.8031 16.9882 13.1365 16.8551 13.4376C16.7218 13.7388 16.5035 13.9951 16.2275 14.1748C15.9859 14.332 15.7086 14.4255 15.4223 14.4462L15.2995 14.4503L1.69913 14.4503C1.36964 14.4501 1.04702 14.3539 0.771075 14.1739C0.495125 13.9939 0.277273 13.7374 0.144356 13.4359C0.0114721 13.1345 -0.0308758 12.8007 0.0223269 12.4756C0.0755552 12.1505 0.222082 11.8481 0.444013 11.6047L0.461447 11.5857L0.870689 11.1565C1.2641 10.7294 1.60921 10.2926 1.89005 9.69805C2.24025 8.95666 2.51308 7.9136 2.54582 6.28384L2.54915 5.95014C2.54915 4.37206 3.17648 2.85824 4.29235 1.74237C5.40814 0.626754 6.92141 5.95014e-05 8.4993 0C10.0773 0 11.5912 0.626575 12.7071 1.74237C13.8229 2.85824 14.4494 4.37206 14.4494 5.95014Z" fill="#171A1F"/>
</svg>
