<svg width="5" height="3" viewBox="0 0 5 3" fill="none" xmlns="http://www.w3.org/2000/svg">
<path d="M3.34318 0.379131C3.61438 0.00289353 4.13198 -0.114132 4.54225 0.122664C4.95262 0.359551 5.11045 0.86663 4.92023 1.28962L4.87741 1.3727C4.63649 1.78984 4.29008 2.13616 3.87304 2.37707C3.4559 2.61789 2.98222 2.74507 2.50058 2.74516C2.01884 2.74516 1.54534 2.61789 1.12811 2.37707C0.762948 2.16626 0.451948 1.87466 0.218502 1.5255L0.122896 1.3727L0.0800019 1.28962C-0.110166 0.86663 0.0476939 0.359551 0.457969 0.122664C0.868261 -0.114132 1.38586 0.00289353 1.65706 0.379131L1.70803 0.457727L1.77418 0.557825C1.84701 0.652708 1.93878 0.732585 2.04309 0.79279C2.18207 0.872942 2.34009 0.915214 2.50058 0.915214C2.66106 0.915123 2.81908 0.873033 2.95806 0.79279C3.09705 0.712547 3.21197 0.596712 3.29221 0.457727L3.34318 0.379131Z" fill="#171A1F"/>
</svg>
