<svg width="1440" height="57" viewBox="0 0 1440 57" fill="none" xmlns="http://www.w3.org/2000/svg">
<rect width="1440" height="56" fill="white"/>
<rect width="1440" height="56" stroke="#9095A0"/>
<path d="M0 56H1440" stroke="#9095A0" stroke-opacity="0.8"/>
<rect x="72" y="8" width="40" height="40" stroke="#BCC1CA"/>
<path d="M100.204 30.1942C97.2117 18.3285 81.8434 10 81.8434 10C81.8434 10 72.7019 24.9013 76.0402 36.6632C76.0402 36.6805 76.0402 36.7065 76.0489 36.7237C76.0575 36.767 76.0748 36.8016 76.0921 36.8448C76.1354 36.9919 76.17 37.1302 76.2132 37.2772H76.2305C78.2456 43.6079 84.8876 47.3095 91.374 45.5712C97.8603 43.8328 101.769 37.3032 100.342 30.8169H100.36C100.325 30.6699 100.291 30.5228 100.247 30.3758C100.239 30.3325 100.23 30.2893 100.221 30.2547C100.221 30.2374 100.204 30.2201 100.204 30.1942Z" fill="#757575"/>
<path d="M108.32 36.6632C111.659 24.9013 102.517 10 102.517 10C102.517 10 87.1488 18.3285 84.1564 30.1942C84.1564 30.2115 84.1391 30.2288 84.1391 30.2547C84.1304 30.2979 84.1218 30.3412 84.1132 30.3758C84.0785 30.5228 84.0353 30.6612 84.0007 30.8082H84.018C82.591 37.3032 86.5001 43.8328 92.9865 45.5712C99.4728 47.3095 106.123 43.6079 108.13 37.2772H108.147C108.19 37.1389 108.225 36.9919 108.268 36.8535C108.277 36.8102 108.294 36.7756 108.312 36.7324C108.312 36.7151 108.312 36.6892 108.32 36.6719V36.6632Z" fill="#8E8E8E"/>
<path fill-rule="evenodd" clip-rule="evenodd" d="M92.1779 17.6853C95.6751 21.0393 99.0131 25.3305 100.247 30.2232C100.247 30.2375 100.252 30.2492 100.257 30.2597C100.261 30.2682 100.264 30.276 100.264 30.2837C100.273 30.3183 100.282 30.3616 100.29 30.4048C100.333 30.5518 100.368 30.6989 100.403 30.8459L100.385 30.8459C101.756 37.0745 98.2055 43.3429 92.1779 45.3705C86.1502 43.3429 82.6001 37.0741 83.9704 30.8372H83.9531C83.9704 30.7637 83.9899 30.6924 84.0093 30.621C84.0288 30.5497 84.0482 30.4784 84.0656 30.4048C84.0742 30.3702 84.0828 30.327 84.0915 30.2837C84.0915 30.2695 84.0967 30.2578 84.1014 30.2473C84.1053 30.2388 84.1088 30.231 84.1088 30.2232C85.3427 25.3305 88.6807 21.0393 92.1779 17.6853Z" fill="#757575" fill-opacity="0.2"/>
<path d="M129.531 26.2756C129.455 25.6032 129.143 25.0824 128.594 24.7131C128.045 24.339 127.353 24.152 126.52 24.152C125.923 24.152 125.407 24.2467 124.972 24.4361C124.536 24.6207 124.197 24.8764 123.956 25.2031C123.719 25.5251 123.601 25.892 123.601 26.304C123.601 26.6496 123.681 26.9479 123.842 27.1989C124.008 27.4498 124.223 27.6605 124.489 27.831C124.759 27.9967 125.047 28.1364 125.355 28.25C125.663 28.3589 125.959 28.4489 126.243 28.5199L127.663 28.8892C128.127 29.0028 128.603 29.1567 129.091 29.3509C129.579 29.545 130.031 29.8007 130.447 30.1179C130.864 30.4351 131.2 30.8281 131.456 31.2969C131.716 31.7656 131.847 32.3267 131.847 32.9801C131.847 33.804 131.634 34.5355 131.207 35.1747C130.786 35.8139 130.173 36.3182 129.368 36.6875C128.568 37.0568 127.599 37.2415 126.463 37.2415C125.374 37.2415 124.432 37.0687 123.636 36.723C122.841 36.3774 122.218 35.8873 121.768 35.2528C121.319 34.6136 121.07 33.8561 121.023 32.9801H123.224C123.267 33.5057 123.438 33.9437 123.736 34.294C124.039 34.6397 124.425 34.8977 124.893 35.0682C125.367 35.2339 125.885 35.3168 126.449 35.3168C127.069 35.3168 127.621 35.2197 128.104 35.0256C128.591 34.8267 128.975 34.5521 129.254 34.2017C129.534 33.8466 129.673 33.4323 129.673 32.9588C129.673 32.5279 129.55 32.1752 129.304 31.9006C129.063 31.6259 128.733 31.3987 128.317 31.2188C127.905 31.0388 127.438 30.8802 126.918 30.7429L125.199 30.2741C124.034 29.9569 123.111 29.4905 122.429 28.875C121.752 28.2595 121.413 27.4451 121.413 26.4318C121.413 25.5937 121.641 24.8622 122.095 24.2372C122.55 23.6122 123.165 23.1269 123.942 22.7812C124.718 22.4309 125.594 22.2557 126.57 22.2557C127.554 22.2557 128.423 22.4285 129.176 22.7741C129.934 23.1198 130.53 23.5956 130.966 24.2017C131.402 24.803 131.629 25.4943 131.648 26.2756L129.531 26.2756ZM141.209 32.4759V26.0909H143.34V37L141.252 37V35.1108H141.138C140.887 35.6932 140.485 36.1785 139.931 36.5668C139.382 36.9503 138.697 37.142 137.878 37.142C137.177 37.142 136.557 36.9882 136.017 36.6804C135.482 36.3679 135.061 35.9062 134.753 35.2955C134.45 34.6847 134.299 33.9295 134.299 33.0298V26.0909H136.422V32.7741C136.422 33.5175 136.628 34.1094 137.04 34.5497C137.452 34.9901 137.987 35.2102 138.645 35.2102C139.043 35.2102 139.438 35.1108 139.831 34.9119C140.229 34.7131 140.558 34.4124 140.819 34.0099C141.084 33.6075 141.214 33.0961 141.209 32.4759ZM146.364 37V22.4545H148.487V27.8594H148.615C148.738 27.6321 148.916 27.3693 149.148 27.071C149.38 26.7727 149.702 26.5123 150.114 26.2898C150.526 26.0625 151.07 25.9489 151.747 25.9489C152.628 25.9489 153.414 26.1714 154.105 26.6165C154.796 27.0616 155.339 27.7031 155.732 28.5412C156.129 29.3793 156.328 30.3878 156.328 31.5668C156.328 32.7457 156.132 33.7566 155.739 34.5994C155.346 35.4375 154.806 36.0838 154.119 36.5384C153.433 36.9882 152.649 37.2131 151.768 37.2131C151.106 37.2131 150.563 37.1018 150.142 36.8793C149.725 36.6567 149.399 36.3963 149.162 36.098C148.925 35.7997 148.743 35.5346 148.615 35.3026H148.438V37H146.364ZM148.445 31.5455C148.445 32.3125 148.556 32.9848 148.778 33.5625C149.001 34.1402 149.323 34.5923 149.744 34.919C150.166 35.241 150.682 35.402 151.293 35.402C151.927 35.402 152.457 35.2339 152.884 34.8977C153.31 34.5568 153.632 34.0952 153.849 33.5128C154.072 32.9304 154.183 32.2746 154.183 31.5455C154.183 30.8258 154.074 30.1795 153.857 29.6065C153.643 29.0336 153.321 28.5814 152.891 28.25C152.464 27.9186 151.932 27.7528 151.293 27.7528C150.677 27.7528 150.156 27.9115 149.73 28.2287C149.309 28.5459 148.989 28.9886 148.771 29.5568C148.554 30.125 148.445 30.7879 148.445 31.5455ZM158.713 37V26.0909L160.836 26.0909V37H158.713ZM159.785 24.4077C159.416 24.4077 159.099 24.2846 158.833 24.0384C158.573 23.7874 158.443 23.4891 158.443 23.1435C158.443 22.7931 158.573 22.4948 158.833 22.2486C159.099 21.9976 159.416 21.8722 159.785 21.8722C160.154 21.8722 160.469 21.9976 160.73 22.2486C160.995 22.4948 161.127 22.7931 161.127 23.1435C161.127 23.4891 160.995 23.7874 160.73 24.0384C160.469 24.2846 160.154 24.4077 159.785 24.4077ZM165.817 30.5227V37H163.693V26.0909H165.732V27.8665H165.866C166.117 27.2888 166.51 26.8248 167.045 26.4744C167.585 26.1241 168.265 25.9489 169.084 25.9489C169.827 25.9489 170.478 26.1051 171.037 26.4176C171.596 26.7254 172.029 27.1847 172.337 27.7955C172.644 28.4062 172.798 29.1615 172.798 30.0611V37H170.675V30.3168C170.675 29.526 170.469 28.9081 170.057 28.4631C169.645 28.0133 169.079 27.7884 168.359 27.7884C167.867 27.7884 167.429 27.8949 167.045 28.108C166.667 28.321 166.366 28.6335 166.143 29.0455C165.926 29.4527 165.817 29.9451 165.817 30.5227ZM181.11 37V22.4545H186.436C187.469 22.4545 188.323 22.625 189 22.9659C189.677 23.3021 190.184 23.759 190.52 24.3366C190.856 24.9096 191.025 25.5559 191.025 26.2756C191.025 26.8816 190.913 27.393 190.691 27.8097C190.468 28.2216 190.17 28.553 189.796 28.804C189.426 29.0502 189.019 29.2301 188.574 29.3438V29.4858C189.057 29.5095 189.528 29.6657 189.988 29.9545C190.452 30.2386 190.835 30.6435 191.138 31.169C191.441 31.6946 191.593 32.3338 191.593 33.0866C191.593 33.83 191.417 34.4976 191.067 35.0895C190.721 35.6766 190.186 36.143 189.462 36.4886C188.738 36.8295 187.812 37 186.685 37H181.11ZM183.304 35.1179H186.472C187.523 35.1179 188.276 34.9143 188.73 34.5071C189.185 34.0999 189.412 33.5909 189.412 32.9801C189.412 32.5208 189.296 32.0994 189.064 31.7159C188.832 31.3324 188.501 31.027 188.07 30.7997C187.644 30.5724 187.137 30.4588 186.55 30.4588H183.304V35.1179ZM183.304 28.7472H186.245C186.737 28.7472 187.18 28.6525 187.573 28.4631C187.971 28.2737 188.285 28.0085 188.517 27.6676C188.754 27.322 188.873 26.9148 188.873 26.446C188.873 25.8447 188.662 25.3404 188.24 24.9332C187.819 24.526 187.173 24.3224 186.301 24.3224H183.304V28.7472ZM197.2 37.2415C196.509 37.2415 195.884 37.1136 195.325 36.858C194.766 36.5975 194.324 36.2211 193.997 35.7287C193.675 35.2363 193.514 34.6326 193.514 33.9176C193.514 33.3021 193.632 32.7955 193.869 32.3977C194.106 32 194.425 31.6851 194.828 31.4531C195.23 31.2211 195.68 31.0459 196.177 30.9276C196.674 30.8092 197.181 30.7192 197.697 30.6577C198.35 30.5819 198.881 30.5204 199.288 30.473C199.695 30.4209 199.991 30.3381 200.176 30.2244C200.36 30.1108 200.453 29.9261 200.453 29.6705V29.6207C200.453 29.0005 200.278 28.5199 199.927 28.179C199.582 27.8381 199.065 27.6676 198.379 27.6676C197.664 27.6676 197.1 27.8262 196.689 28.1435C196.281 28.456 196 28.804 195.843 29.1875L193.848 28.733C194.084 28.0701 194.43 27.535 194.885 27.1278C195.344 26.7159 195.872 26.4176 196.468 26.233C197.065 26.0436 197.692 25.9489 198.35 25.9489C198.786 25.9489 199.248 26.0009 199.735 26.1051C200.228 26.2045 200.687 26.3892 201.113 26.6591C201.544 26.929 201.897 27.3149 202.172 27.8168C202.446 28.3139 202.583 28.9602 202.583 29.7557V37H200.51V35.5085H200.424C200.287 35.7831 200.081 36.053 199.806 36.3182C199.532 36.5833 199.179 36.8035 198.748 36.9787C198.317 37.1539 197.801 37.2415 197.2 37.2415ZM197.662 35.5369C198.249 35.5369 198.751 35.4209 199.167 35.1889C199.589 34.9569 199.908 34.6539 200.126 34.2798C200.349 33.901 200.46 33.4962 200.46 33.0653V31.6591C200.384 31.7348 200.237 31.8059 200.02 31.8722C199.806 31.9337 199.563 31.9882 199.288 32.0355C199.013 32.0781 198.746 32.1184 198.485 32.1563C198.225 32.1894 198.007 32.2178 197.832 32.2415C197.42 32.2936 197.044 32.3812 196.703 32.5043C196.367 32.6274 196.097 32.8049 195.893 33.0369C195.694 33.2642 195.595 33.5672 195.595 33.946C195.595 34.4716 195.789 34.8693 196.177 35.1392C196.565 35.4044 197.06 35.5369 197.662 35.5369ZM205.582 37V22.4545H207.706V27.8594H207.834C207.957 27.6321 208.134 27.3693 208.366 27.071C208.598 26.7727 208.92 26.5123 209.332 26.2898C209.744 26.0625 210.289 25.9489 210.966 25.9489C211.847 25.9489 212.633 26.1714 213.324 26.6165C214.015 27.0616 214.557 27.7031 214.95 28.5412C215.348 29.3793 215.547 30.3878 215.547 31.5668C215.547 32.7457 215.35 33.7566 214.957 34.5994C214.564 35.4375 214.025 36.0838 213.338 36.5384C212.652 36.9882 211.868 37.2131 210.987 37.2131C210.324 37.2131 209.782 37.1018 209.361 36.8793C208.944 36.6567 208.617 36.3963 208.381 36.098C208.144 35.7997 207.962 35.5346 207.834 35.3026H207.656V37H205.582ZM207.663 31.5455C207.663 32.3125 207.775 32.9848 207.997 33.5625C208.22 34.1402 208.542 34.5923 208.963 34.919C209.384 35.241 209.901 35.402 210.511 35.402C211.146 35.402 211.676 35.2339 212.102 34.8977C212.528 34.5568 212.85 34.0952 213.068 33.5128C213.291 32.9304 213.402 32.2746 213.402 31.5455C213.402 30.8258 213.293 30.1795 213.075 29.6065C212.862 29.0336 212.54 28.5814 212.109 28.25C211.683 27.9186 211.151 27.7528 210.511 27.7528C209.896 27.7528 209.375 27.9115 208.949 28.2287C208.527 28.5459 208.208 28.9886 207.99 29.5568C207.772 30.125 207.663 30.7879 207.663 31.5455ZM224.842 32.4759V26.0909L226.973 26.0909V37H224.885V35.1108H224.771C224.52 35.6932 224.118 36.1785 223.564 36.5668C223.014 36.9503 222.33 37.142 221.511 37.142C220.81 37.142 220.19 36.9882 219.65 36.6804C219.115 36.3679 218.694 35.9063 218.386 35.2955C218.083 34.6847 217.931 33.9295 217.931 33.0298V26.0909H220.055V32.7741C220.055 33.5175 220.261 34.1094 220.673 34.5497C221.085 34.9901 221.62 35.2102 222.278 35.2102C222.676 35.2102 223.071 35.1108 223.464 34.9119C223.862 34.7131 224.191 34.4124 224.451 34.0099C224.717 33.6075 224.847 33.0961 224.842 32.4759Z" fill="#171A1F"/>
<g clip-path="url(#clip0_4_4)">
<path d="M244.119 33V22.8182H245.655V27.2429H250.731V22.8182H252.272V33H250.731V28.5604H245.655V33H244.119ZM257.607 33.1541C256.891 33.1541 256.266 32.9901 255.732 32.6619C255.199 32.3338 254.784 31.8748 254.489 31.2848C254.194 30.6948 254.047 30.0054 254.047 29.2166C254.047 28.4245 254.194 27.7318 254.489 27.1385C254.784 26.5452 255.199 26.0845 255.732 25.7564C256.266 25.4283 256.891 25.2642 257.607 25.2642C258.322 25.2642 258.947 25.4283 259.481 25.7564C260.014 26.0845 260.429 26.5452 260.724 27.1385C261.019 27.7318 261.166 28.4245 261.166 29.2166C261.166 30.0054 261.019 30.6948 260.724 31.2848C260.429 31.8748 260.014 32.3338 259.481 32.6619C258.947 32.9901 258.322 33.1541 257.607 33.1541ZM257.612 31.9062C258.076 31.9062 258.46 31.7836 258.765 31.5384C259.07 31.2931 259.295 30.9666 259.441 30.5589C259.59 30.1513 259.665 29.7022 259.665 29.2116C259.665 28.7244 259.59 28.277 259.441 27.8693C259.295 27.4583 259.07 27.1286 258.765 26.88C258.46 26.6314 258.076 26.5071 257.612 26.5071C257.144 26.5071 256.756 26.6314 256.448 26.88C256.143 27.1286 255.916 27.4583 255.767 27.8693C255.621 28.277 255.548 28.7244 255.548 29.2116C255.548 29.7022 255.621 30.1513 255.767 30.5589C255.916 30.9666 256.143 31.2931 256.448 31.5384C256.756 31.7836 257.144 31.9062 257.612 31.9062ZM262.825 33V25.3636H264.252V26.6065H264.347C264.506 26.1856 264.766 25.8575 265.127 25.6222C265.489 25.3835 265.921 25.2642 266.425 25.2642C266.935 25.2642 267.363 25.3835 267.708 25.6222C268.056 25.8608 268.312 26.1889 268.478 26.6065H268.558C268.74 26.1989 269.03 25.8741 269.428 25.6321C269.825 25.3868 270.299 25.2642 270.85 25.2642C271.542 25.2642 272.107 25.4813 272.545 25.9155C272.986 26.3497 273.206 27.0043 273.206 27.8793V33H271.72V28.0185C271.72 27.5014 271.579 27.1269 271.297 26.8949C271.015 26.6629 270.679 26.5469 270.288 26.5469C269.804 26.5469 269.428 26.696 269.159 26.9943C268.891 27.2893 268.757 27.6688 268.757 28.1328V33H267.275V27.924C267.275 27.5097 267.146 27.1766 266.887 26.9247C266.629 26.6728 266.292 26.5469 265.878 26.5469C265.596 26.5469 265.336 26.6214 265.097 26.7706C264.862 26.9164 264.672 27.1203 264.526 27.3821C264.383 27.6439 264.312 27.9472 264.312 28.2919V33H262.825ZM278.49 33.1541C277.737 33.1541 277.089 32.9934 276.546 32.6719C276.006 32.3471 275.588 31.8913 275.293 31.3047C275.001 30.7147 274.855 30.0237 274.855 29.2315C274.855 28.4493 275.001 27.7599 275.293 27.1634C275.588 26.5668 275.999 26.1011 276.526 25.7663C277.056 25.4316 277.676 25.2642 278.385 25.2642C278.816 25.2642 279.234 25.3355 279.638 25.478C280.042 25.6205 280.405 25.8442 280.727 26.1491C281.048 26.4541 281.302 26.8501 281.488 27.3374C281.673 27.8213 281.766 28.4096 281.766 29.1023V29.6293H275.696V28.5156H280.309C280.309 28.1245 280.23 27.7782 280.071 27.4766C279.912 27.1716 279.688 26.9313 279.4 26.7557C279.114 26.58 278.78 26.4922 278.395 26.4922C277.978 26.4922 277.613 26.5949 277.301 26.8004C276.993 27.0026 276.755 27.2678 276.586 27.5959C276.42 27.9207 276.337 28.2737 276.337 28.6548V29.5249C276.337 30.0353 276.426 30.4695 276.605 30.8274C276.788 31.1854 277.041 31.4588 277.366 31.6477C277.691 31.8333 278.07 31.9261 278.505 31.9261C278.786 31.9261 279.043 31.8864 279.275 31.8068C279.507 31.724 279.708 31.6013 279.877 31.4389C280.046 31.2765 280.175 31.076 280.265 30.8374L281.672 31.0909C281.559 31.5052 281.357 31.8681 281.065 32.1797C280.777 32.4879 280.414 32.7282 279.976 32.9006C279.542 33.0696 279.047 33.1541 278.49 33.1541Z" fill="#171A1F"/>
</g>
<path d="M308.979 33H307.348L311.012 22.8182H312.787L316.451 33H314.82L311.942 24.6676H311.862L308.979 33ZM309.252 29.0128H314.542V30.3054H309.252V29.0128ZM317.921 33V22.8182H319.408V26.6016H319.497C319.584 26.4425 319.708 26.2585 319.87 26.0497C320.033 25.8409 320.258 25.6586 320.546 25.5028C320.835 25.3438 321.216 25.2642 321.69 25.2642C322.306 25.2642 322.856 25.42 323.34 25.7315C323.824 26.0431 324.204 26.4922 324.479 27.0788C324.757 27.6655 324.896 28.3714 324.896 29.1967C324.896 30.022 324.759 30.7296 324.484 31.3196C324.209 31.9062 323.831 32.3587 323.35 32.6768C322.87 32.9917 322.321 33.1491 321.705 33.1491C321.241 33.1491 320.861 33.0713 320.566 32.9155C320.275 32.7597 320.046 32.5774 319.88 32.3686C319.714 32.1598 319.587 31.9742 319.497 31.8118H319.373V33H317.921ZM319.378 29.1818C319.378 29.7187 319.456 30.1894 319.612 30.5938C319.767 30.9981 319.993 31.3146 320.288 31.5433C320.583 31.7687 320.944 31.8814 321.372 31.8814C321.816 31.8814 322.187 31.7637 322.485 31.5284C322.784 31.2898 323.009 30.9666 323.161 30.5589C323.317 30.1513 323.395 29.6922 323.395 29.1818C323.395 28.678 323.319 28.2256 323.166 27.8246C323.017 27.4235 322.792 27.107 322.49 26.875C322.192 26.643 321.819 26.527 321.372 26.527C320.941 26.527 320.576 26.638 320.278 26.8601C319.983 27.0821 319.759 27.392 319.607 27.7898C319.454 28.1875 319.378 28.6515 319.378 29.1818ZM329.782 33.1541C329.066 33.1541 328.442 32.9901 327.908 32.6619C327.374 32.3338 326.96 31.8748 326.665 31.2848C326.37 30.6948 326.223 30.0054 326.223 29.2166C326.223 28.4245 326.37 27.7318 326.665 27.1385C326.96 26.5452 327.374 26.0845 327.908 25.7564C328.442 25.4283 329.066 25.2642 329.782 25.2642C330.498 25.2642 331.123 25.4283 331.657 25.7564C332.19 26.0845 332.605 26.5452 332.9 27.1385C333.194 27.7318 333.342 28.4245 333.342 29.2166C333.342 30.0054 333.194 30.6948 332.9 31.2848C332.605 31.8748 332.19 32.3338 331.657 32.6619C331.123 32.9901 330.498 33.1541 329.782 33.1541ZM329.787 31.9062C330.251 31.9062 330.636 31.7836 330.941 31.5384C331.246 31.2931 331.471 30.9666 331.617 30.5589C331.766 30.1513 331.841 29.7022 331.841 29.2116C331.841 28.7244 331.766 28.277 331.617 27.8693C331.471 27.4583 331.246 27.1286 330.941 26.88C330.636 26.6314 330.251 26.5071 329.787 26.5071C329.32 26.5071 328.932 26.6314 328.624 26.88C328.319 27.1286 328.092 27.4583 327.943 27.8693C327.797 28.277 327.724 28.7244 327.724 29.2116C327.724 29.7022 327.797 30.1513 327.943 30.5589C328.092 30.9666 328.319 31.2931 328.624 31.5384C328.932 31.7836 329.32 31.9062 329.787 31.9062ZM339.839 29.8331V25.3636H341.33V33H339.868V31.6776H339.789C339.613 32.0852 339.331 32.425 338.944 32.6967C338.559 32.9652 338.08 33.0994 337.507 33.0994C337.016 33.0994 336.582 32.9917 336.204 32.7763C335.83 32.5575 335.535 32.2344 335.319 31.8068C335.107 31.3793 335.001 30.8506 335.001 30.2209V25.3636H336.488V30.0419C336.488 30.5623 336.632 30.9766 336.92 31.2848C337.209 31.593 337.583 31.7472 338.044 31.7472C338.322 31.7472 338.599 31.6776 338.874 31.5384C339.153 31.3991 339.383 31.1887 339.565 30.907C339.751 30.6252 339.842 30.2673 339.839 29.8331ZM346.892 25.3636V26.5568H342.721V25.3636H346.892ZM343.839 23.5341H345.326V30.7578C345.326 31.0462 345.369 31.2633 345.455 31.4091C345.541 31.5516 345.652 31.6494 345.788 31.7024C345.928 31.7521 346.078 31.777 346.241 31.777C346.36 31.777 346.464 31.7687 346.554 31.7521C346.643 31.7356 346.713 31.7223 346.763 31.7124L347.031 32.9403C346.945 32.9735 346.822 33.0066 346.663 33.0398C346.504 33.0762 346.305 33.0961 346.067 33.0994C345.676 33.1061 345.311 33.0365 344.973 32.8906C344.635 32.7448 344.362 32.5194 344.153 32.2145C343.944 31.9096 343.839 31.5268 343.839 31.0661V23.5341Z" fill="#565E6D"/>
<path d="M373.119 33V22.8182H376.748C377.54 22.8182 378.196 22.9624 378.717 23.2507C379.237 23.5391 379.626 23.9335 379.885 24.4339C380.143 24.9311 380.273 25.4912 380.273 26.1143C380.273 26.7408 380.142 27.3042 379.88 27.8047C379.621 28.3018 379.23 28.6963 378.707 28.9879C378.186 29.2763 377.532 29.4205 376.743 29.4205H374.247V28.1179H376.604C377.104 28.1179 377.51 28.0317 377.822 27.8594C378.133 27.6837 378.362 27.4451 378.508 27.1435C378.654 26.8419 378.727 26.4988 378.727 26.1143C378.727 25.7299 378.654 25.3885 378.508 25.0902C378.362 24.7919 378.132 24.5582 377.817 24.3892C377.505 24.2202 377.094 24.1357 376.584 24.1357H374.655V33H373.119ZM381.954 33V25.3636H383.391V26.5767H383.471C383.61 26.1657 383.855 25.8426 384.206 25.6072C384.561 25.3686 384.962 25.2493 385.41 25.2493C385.502 25.2493 385.612 25.2526 385.738 25.2592C385.867 25.2659 385.968 25.2741 386.041 25.2841V26.706C385.981 26.6894 385.875 26.6712 385.723 26.6513C385.57 26.6281 385.418 26.6165 385.265 26.6165C384.914 26.6165 384.601 26.6911 384.326 26.8402C384.054 26.986 383.839 27.1899 383.68 27.4517C383.52 27.7102 383.441 28.0052 383.441 28.3366V33H381.954ZM390.271 33.1541C389.555 33.1541 388.93 32.9901 388.396 32.6619C387.863 32.3338 387.448 31.8748 387.153 31.2848C386.858 30.6948 386.711 30.0054 386.711 29.2166C386.711 28.4245 386.858 27.7318 387.153 27.1385C387.448 26.5452 387.863 26.0845 388.396 25.7564C388.93 25.4283 389.555 25.2642 390.271 25.2642C390.987 25.2642 391.611 25.4283 392.145 25.7564C392.679 26.0845 393.093 26.5452 393.388 27.1385C393.683 27.7318 393.83 28.4245 393.83 29.2166C393.83 30.0054 393.683 30.6948 393.388 31.2848C393.093 31.8748 392.679 32.3338 392.145 32.6619C391.611 32.9901 390.987 33.1541 390.271 33.1541ZM390.276 31.9062C390.74 31.9062 391.124 31.7836 391.429 31.5384C391.734 31.2931 391.959 30.9666 392.105 30.5589C392.254 30.1513 392.329 29.7022 392.329 29.2116C392.329 28.7244 392.254 28.277 392.105 27.8693C391.959 27.4583 391.734 27.1286 391.429 26.88C391.124 26.6314 390.74 26.5071 390.276 26.5071C389.808 26.5071 389.42 26.6314 389.112 26.88C388.807 27.1286 388.58 27.4583 388.431 27.8693C388.285 28.277 388.212 28.7244 388.212 29.2116C388.212 29.7022 388.285 30.1513 388.431 30.5589C388.58 30.9666 388.807 31.2931 389.112 31.5384C389.42 31.7836 389.808 31.9062 390.276 31.9062ZM395.49 25.3636H396.976V33.4972C396.976 34.0076 396.883 34.4384 396.698 34.7898C396.515 35.1411 396.244 35.4079 395.882 35.5902C395.524 35.7725 395.082 35.8636 394.555 35.8636C394.502 35.8636 394.452 35.8636 394.406 35.8636C394.356 35.8636 394.305 35.862 394.252 35.8587V34.581C394.298 34.581 394.339 34.581 394.376 34.581C394.409 34.581 394.447 34.581 394.49 34.581C394.842 34.581 395.095 34.4865 395.251 34.2976C395.41 34.112 395.49 33.8419 395.49 33.4872V25.3636ZM396.225 24.1854C395.967 24.1854 395.745 24.0992 395.559 23.9268C395.377 23.7512 395.286 23.5424 395.286 23.3004C395.286 23.0552 395.377 22.8464 395.559 22.674C395.745 22.4983 395.967 22.4105 396.225 22.4105C396.484 22.4105 396.704 22.4983 396.887 22.674C397.072 22.8464 397.165 23.0552 397.165 23.3004C397.165 23.5424 397.072 23.7512 396.887 23.9268C396.704 24.0992 396.484 24.1854 396.225 24.1854ZM402.267 33.1541C401.515 33.1541 400.867 32.9934 400.323 32.6719C399.783 32.3471 399.365 31.8913 399.07 31.3047C398.779 30.7147 398.633 30.0237 398.633 29.2315C398.633 28.4493 398.779 27.7599 399.07 27.1634C399.365 26.5668 399.776 26.1011 400.303 25.7663C400.834 25.4316 401.453 25.2642 402.163 25.2642C402.594 25.2642 403.011 25.3355 403.415 25.478C403.82 25.6205 404.183 25.8442 404.504 26.1491C404.826 26.4541 405.079 26.8501 405.265 27.3374C405.451 27.8213 405.543 28.4096 405.543 29.1023V29.6293H399.473V28.5156H404.087C404.087 28.1245 404.007 27.7782 403.848 27.4766C403.689 27.1716 403.465 26.9313 403.177 26.7557C402.892 26.58 402.557 26.4922 402.173 26.4922C401.755 26.4922 401.39 26.5949 401.079 26.8004C400.771 27.0026 400.532 27.2678 400.363 27.5959C400.197 27.9207 400.114 28.2737 400.114 28.6548V29.5249C400.114 30.0353 400.204 30.4695 400.383 30.8274C400.565 31.1854 400.819 31.4588 401.143 31.6477C401.468 31.8333 401.848 31.9261 402.282 31.9261C402.564 31.9261 402.821 31.8864 403.053 31.8068C403.285 31.724 403.485 31.6013 403.654 31.4389C403.823 31.2765 403.952 31.076 404.042 30.8374L405.449 31.0909C405.336 31.5052 405.134 31.8681 404.842 32.1797C404.554 32.4879 404.191 32.7282 403.754 32.9006C403.319 33.0696 402.824 33.1541 402.267 33.1541ZM410.409 33.1541C409.67 33.1541 409.034 32.9867 408.5 32.652C407.97 32.3139 407.562 31.8482 407.277 31.255C406.992 30.6617 406.85 29.9822 406.85 29.2166C406.85 28.4411 406.995 27.7566 407.287 27.1634C407.579 26.5668 407.99 26.1011 408.52 25.7663C409.05 25.4316 409.675 25.2642 410.394 25.2642C410.974 25.2642 411.491 25.3719 411.945 25.5874C412.4 25.7995 412.766 26.0978 413.044 26.4822C413.326 26.8667 413.493 27.3158 413.546 27.8295H412.1C412.02 27.4716 411.838 27.1634 411.553 26.9048C411.271 26.6463 410.893 26.517 410.419 26.517C410.005 26.517 409.642 26.6264 409.33 26.8452C409.022 27.0606 408.782 27.3688 408.61 27.7699C408.437 28.1676 408.351 28.6383 408.351 29.1818C408.351 29.7386 408.436 30.2192 408.605 30.6236C408.774 31.0279 409.012 31.3411 409.32 31.5632C409.632 31.7853 409.998 31.8963 410.419 31.8963C410.701 31.8963 410.956 31.8449 411.185 31.7422C411.417 31.6361 411.611 31.4853 411.767 31.2898C411.926 31.0942 412.037 30.8589 412.1 30.5838H413.546C413.493 31.0777 413.333 31.5185 413.064 31.9062C412.796 32.294 412.436 32.599 411.985 32.821C411.538 33.0431 411.012 33.1541 410.409 33.1541ZM418.701 25.3636V26.5568H414.529V25.3636H418.701ZM415.648 23.5341H417.135V30.7578C417.135 31.0462 417.178 31.2633 417.264 31.4091C417.35 31.5516 417.461 31.6494 417.597 31.7024C417.736 31.7521 417.887 31.777 418.049 31.777C418.169 31.777 418.273 31.7687 418.363 31.7521C418.452 31.7356 418.522 31.7223 418.571 31.7124L418.84 32.9403C418.754 32.9735 418.631 33.0066 418.472 33.0398C418.313 33.0762 418.114 33.0961 417.875 33.0994C417.484 33.1061 417.12 33.0365 416.782 32.8906C416.444 32.7448 416.17 32.5194 415.961 32.2145C415.752 31.9096 415.648 31.5268 415.648 31.0661V23.5341ZM425.944 27.228L424.597 27.4666C424.541 27.2943 424.451 27.1302 424.328 26.9744C424.209 26.8187 424.047 26.6911 423.841 26.5916C423.636 26.4922 423.379 26.4425 423.071 26.4425C422.65 26.4425 422.298 26.5369 422.017 26.7259C421.735 26.9115 421.594 27.1518 421.594 27.4467C421.594 27.7019 421.689 27.9074 421.877 28.0632C422.066 28.219 422.371 28.3466 422.792 28.446L424.005 28.7244C424.708 28.8868 425.232 29.1371 425.576 29.4751C425.921 29.8132 426.093 30.2524 426.093 30.7926C426.093 31.25 425.961 31.6577 425.696 32.0156C425.434 32.3703 425.068 32.6487 424.597 32.8509C424.13 33.053 423.588 33.1541 422.971 33.1541C422.116 33.1541 421.418 32.9718 420.878 32.6072C420.338 32.2393 420.007 31.7173 419.884 31.0412L421.321 30.8224C421.41 31.197 421.594 31.4804 421.873 31.6726C422.151 31.8615 422.514 31.956 422.961 31.956C423.449 31.956 423.838 31.8549 424.13 31.6527C424.421 31.4472 424.567 31.197 424.567 30.902C424.567 30.6634 424.478 30.4628 424.299 30.3004C424.123 30.138 423.853 30.0154 423.488 29.9325L422.196 29.6491C421.483 29.4867 420.956 29.2282 420.615 28.8736C420.277 28.5189 420.108 28.0698 420.108 27.5263C420.108 27.0755 420.234 26.6811 420.485 26.343C420.737 26.005 421.085 25.7415 421.529 25.5526C421.974 25.3603 422.482 25.2642 423.056 25.2642C423.881 25.2642 424.531 25.4432 425.005 25.8011C425.479 26.1558 425.792 26.6314 425.944 27.228Z" fill="#565E6D"/>
<path d="M452.119 33V22.8182H455.847C456.57 22.8182 457.168 22.9375 457.642 23.1761C458.116 23.4115 458.471 23.7313 458.706 24.1357C458.941 24.5367 459.059 24.9891 459.059 25.4929C459.059 25.9171 458.981 26.2751 458.825 26.5668C458.67 26.8551 458.461 27.0871 458.199 27.2628C457.94 27.4351 457.655 27.5611 457.344 27.6406V27.7401C457.682 27.7566 458.012 27.866 458.333 28.0682C458.658 28.267 458.926 28.5504 459.138 28.9183C459.351 29.2862 459.457 29.7337 459.457 30.2607C459.457 30.781 459.334 31.2483 459.089 31.6626C458.847 32.0736 458.472 32.4001 457.965 32.642C457.458 32.8807 456.81 33 456.021 33H452.119ZM453.655 31.6825H455.872C456.608 31.6825 457.135 31.54 457.453 31.255C457.771 30.9699 457.93 30.6136 457.93 30.1861C457.93 29.8646 457.849 29.5696 457.687 29.3011C457.524 29.0327 457.292 28.8189 456.991 28.6598C456.692 28.5007 456.338 28.4212 455.927 28.4212H453.655V31.6825ZM453.655 27.223H455.713C456.058 27.223 456.368 27.1567 456.643 27.0241C456.921 26.8916 457.142 26.706 457.304 26.4673C457.47 26.2254 457.553 25.9403 457.553 25.6122C457.553 25.1913 457.405 24.8383 457.11 24.5533C456.815 24.2682 456.363 24.1257 455.753 24.1257H453.655V27.223ZM462.646 22.8182V33H461.159V22.8182H462.646ZM467.862 33.1541C467.146 33.1541 466.522 32.9901 465.988 32.6619C465.454 32.3338 465.04 31.8748 464.745 31.2848C464.45 30.6948 464.303 30.0054 464.303 29.2166C464.303 28.4245 464.45 27.7318 464.745 27.1385C465.04 26.5452 465.454 26.0845 465.988 25.7564C466.522 25.4283 467.146 25.2642 467.862 25.2642C468.578 25.2642 469.203 25.4283 469.737 25.7564C470.27 26.0845 470.685 26.5452 470.98 27.1385C471.275 27.7318 471.422 28.4245 471.422 29.2166C471.422 30.0054 471.275 30.6948 470.98 31.2848C470.685 31.8748 470.27 32.3338 469.737 32.6619C469.203 32.9901 468.578 33.1541 467.862 33.1541ZM467.867 31.9062C468.331 31.9062 468.716 31.7836 469.021 31.5384C469.326 31.2931 469.551 30.9666 469.697 30.5589C469.846 30.1513 469.921 29.7022 469.921 29.2116C469.921 28.7244 469.846 28.277 469.697 27.8693C469.551 27.4583 469.326 27.1286 469.021 26.88C468.716 26.6314 468.331 26.5071 467.867 26.5071C467.4 26.5071 467.012 26.6314 466.704 26.88C466.399 27.1286 466.172 27.4583 466.023 27.8693C465.877 28.277 465.804 28.7244 465.804 29.2116C465.804 29.7022 465.877 30.1513 466.023 30.5589C466.172 30.9666 466.399 31.2931 466.704 31.5384C467.012 31.7836 467.4 31.9062 467.867 31.9062ZM476.283 36.0227C475.676 36.0227 475.154 35.9432 474.717 35.7841C474.283 35.625 473.928 35.4145 473.653 35.1527C473.378 34.8909 473.172 34.6042 473.037 34.2926L474.314 33.7656C474.404 33.9115 474.523 34.0656 474.672 34.228C474.825 34.3937 475.03 34.5346 475.289 34.6506C475.551 34.7666 475.887 34.8246 476.298 34.8246C476.861 34.8246 477.327 34.687 477.695 34.4119C478.063 34.1402 478.247 33.706 478.247 33.1094V31.608H478.152C478.063 31.7704 477.934 31.951 477.765 32.1499C477.599 32.3487 477.37 32.5211 477.078 32.6669C476.787 32.8127 476.407 32.8857 475.94 32.8857C475.337 32.8857 474.793 32.7448 474.309 32.4631C473.829 32.178 473.448 31.7588 473.166 31.2053C472.887 30.6484 472.748 29.964 472.748 29.152C472.748 28.34 472.886 27.6439 473.161 27.0639C473.439 26.4839 473.82 26.0398 474.304 25.7315C474.788 25.42 475.337 25.2642 475.95 25.2642C476.424 25.2642 476.807 25.3438 477.098 25.5028C477.39 25.6586 477.617 25.8409 477.779 26.0497C477.945 26.2585 478.073 26.4425 478.162 26.6016H478.272V25.3636H479.728V33.169C479.728 33.8253 479.576 34.3639 479.271 34.7848C478.966 35.2057 478.553 35.5173 478.033 35.7195C477.516 35.9216 476.933 36.0227 476.283 36.0227ZM476.268 31.6527C476.696 31.6527 477.057 31.5533 477.352 31.3544C477.65 31.1522 477.876 30.8639 478.028 30.4893C478.184 30.1115 478.262 29.6591 478.262 29.1321C478.262 28.6184 478.185 28.166 478.033 27.7749C477.881 27.3838 477.657 27.0788 477.362 26.8601C477.067 26.638 476.702 26.527 476.268 26.527C475.821 26.527 475.448 26.643 475.15 26.875C474.851 27.1037 474.626 27.4152 474.473 27.8097C474.324 28.2041 474.25 28.6449 474.25 29.1321C474.25 29.6326 474.326 30.0717 474.478 30.4496C474.631 30.8274 474.856 31.1224 475.154 31.3345C475.456 31.5466 475.827 31.6527 476.268 31.6527Z" fill="#565E6D"/>
<g clip-path="url(#clip1_4_4)">
<path d="M514.575 26.1293H513.024C512.964 25.7978 512.853 25.5062 512.691 25.2543C512.529 25.0024 512.33 24.7886 512.094 24.6129C511.859 24.4373 511.596 24.3047 511.304 24.2152C511.016 24.1257 510.709 24.081 510.384 24.081C509.798 24.081 509.272 24.2285 508.808 24.5234C508.348 24.8184 507.983 25.2509 507.714 25.821C507.449 26.3911 507.317 27.0871 507.317 27.9091C507.317 28.7377 507.449 29.437 507.714 30.0071C507.983 30.5772 508.349 31.008 508.813 31.2997C509.277 31.5914 509.799 31.7372 510.379 31.7372C510.701 31.7372 511.006 31.6941 511.294 31.608C511.586 31.5185 511.849 31.3875 512.085 31.2152C512.32 31.0429 512.519 30.8324 512.681 30.5838C512.847 30.3319 512.961 30.0436 513.024 29.7188L514.575 29.7237C514.492 30.2242 514.332 30.6849 514.093 31.1058C513.858 31.5234 513.554 31.8847 513.183 32.1896C512.815 32.4912 512.394 32.7249 511.92 32.8906C511.446 33.0563 510.929 33.1392 510.369 33.1392C509.488 33.1392 508.702 32.9304 508.013 32.5128C507.323 32.0919 506.78 31.4903 506.382 30.7081C505.988 29.9259 505.79 28.9929 505.79 27.9091C505.79 26.822 505.989 25.889 506.387 25.1101C506.785 24.3279 507.328 23.728 508.018 23.3104C508.707 22.8894 509.491 22.679 510.369 22.679C510.91 22.679 511.413 22.7569 511.881 22.9126C512.351 23.0651 512.774 23.2905 513.148 23.5888C513.523 23.8838 513.833 24.245 514.078 24.6726C514.323 25.0968 514.489 25.5824 514.575 26.1293ZM519.511 33.1541C518.795 33.1541 518.17 32.9901 517.637 32.6619C517.103 32.3338 516.689 31.8748 516.394 31.2848C516.099 30.6948 515.951 30.0054 515.951 29.2166C515.951 28.4245 516.099 27.7318 516.394 27.1385C516.689 26.5452 517.103 26.0845 517.637 25.7564C518.17 25.4283 518.795 25.2642 519.511 25.2642C520.227 25.2642 520.852 25.4283 521.385 25.7564C521.919 26.0845 522.333 26.5452 522.628 27.1385C522.923 27.7318 523.07 28.4245 523.07 29.2166C523.07 30.0054 522.923 30.6948 522.628 31.2848C522.333 31.8748 521.919 32.3338 521.385 32.6619C520.852 32.9901 520.227 33.1541 519.511 33.1541ZM519.516 31.9062C519.98 31.9062 520.364 31.7836 520.669 31.5384C520.974 31.2931 521.2 30.9666 521.345 30.5589C521.494 30.1513 521.569 29.7022 521.569 29.2116C521.569 28.7244 521.494 28.277 521.345 27.8693C521.2 27.4583 520.974 27.1286 520.669 26.88C520.364 26.6314 519.98 26.5071 519.516 26.5071C519.048 26.5071 518.661 26.6314 518.352 26.88C518.048 27.1286 517.82 27.4583 517.671 27.8693C517.526 28.277 517.453 28.7244 517.453 29.2116C517.453 29.7022 517.526 30.1513 517.671 30.5589C517.82 30.9666 518.048 31.2931 518.352 31.5384C518.661 31.7836 519.048 31.9062 519.516 31.9062ZM526.216 28.4659V33H524.73V25.3636H526.157V26.6065H526.251C526.427 26.2022 526.702 25.8774 527.076 25.6321C527.454 25.3868 527.93 25.2642 528.503 25.2642C529.024 25.2642 529.479 25.3736 529.87 25.5923C530.261 25.8078 530.565 26.1293 530.78 26.5568C530.996 26.9844 531.103 27.513 531.103 28.1428V33H529.617V28.3217C529.617 27.7682 529.473 27.3357 529.184 27.0241C528.896 26.7093 528.5 26.5518 527.996 26.5518C527.651 26.5518 527.345 26.6264 527.076 26.7756C526.811 26.9247 526.601 27.1435 526.445 27.4318C526.292 27.7169 526.216 28.0616 526.216 28.4659ZM536.662 25.3636V26.5568H532.49V25.3636H536.662ZM533.609 23.5341H535.096V30.7578C535.096 31.0462 535.139 31.2633 535.225 31.4091C535.311 31.5516 535.422 31.6494 535.558 31.7024C535.697 31.7521 535.848 31.777 536.01 31.777C536.13 31.777 536.234 31.7687 536.324 31.7521C536.413 31.7356 536.483 31.7223 536.532 31.7124L536.801 32.9403C536.715 32.9735 536.592 33.0066 536.433 33.0398C536.274 33.0762 536.075 33.0961 535.836 33.0994C535.445 33.1061 535.081 33.0365 534.743 32.8906C534.404 32.7448 534.131 32.5194 533.922 32.2145C533.713 31.9096 533.609 31.5268 533.609 31.0661V23.5341ZM540.528 33.169C540.044 33.169 539.607 33.0795 539.216 32.9006C538.825 32.7183 538.515 32.4548 538.286 32.1101C538.061 31.7654 537.948 31.3428 537.948 30.8423C537.948 30.4115 538.031 30.0568 538.197 29.7784C538.362 29.5 538.586 29.2796 538.868 29.1172C539.149 28.9548 539.464 28.8321 539.812 28.7493C540.16 28.6664 540.515 28.6035 540.876 28.5604C541.334 28.5073 541.705 28.4643 541.99 28.4311C542.275 28.3946 542.482 28.3366 542.611 28.2571C542.741 28.1776 542.805 28.0483 542.805 27.8693V27.8345C542.805 27.4003 542.683 27.0639 542.437 26.8253C542.195 26.5866 541.834 26.4673 541.354 26.4673C540.853 26.4673 540.459 26.5784 540.17 26.8004C539.885 27.0192 539.688 27.2628 539.579 27.5312L538.182 27.2131C538.347 26.7491 538.589 26.3745 538.907 26.0895C539.229 25.8011 539.599 25.5923 540.016 25.4631C540.434 25.3305 540.873 25.2642 541.334 25.2642C541.639 25.2642 541.962 25.3007 542.303 25.3736C542.648 25.4432 542.969 25.5724 543.268 25.7614C543.569 25.9503 543.816 26.2204 544.008 26.5717C544.201 26.9197 544.297 27.3722 544.297 27.929V33H542.845V31.956H542.785C542.689 32.1482 542.545 32.3371 542.353 32.5227C542.161 32.7083 541.914 32.8625 541.612 32.9851C541.31 33.1077 540.949 33.169 540.528 33.169ZM540.851 31.9759C541.262 31.9759 541.614 31.8946 541.905 31.7322C542.2 31.5698 542.424 31.3577 542.577 31.0959C542.732 30.8307 542.81 30.5473 542.81 30.2457V29.2614C542.757 29.3144 542.654 29.3641 542.502 29.4105C542.353 29.4536 542.182 29.4917 541.99 29.5249C541.798 29.5547 541.61 29.5829 541.428 29.6094C541.246 29.6326 541.093 29.6525 540.971 29.669C540.682 29.7055 540.419 29.7668 540.18 29.853C539.945 29.9392 539.756 30.0634 539.613 30.2259C539.474 30.3849 539.405 30.5971 539.405 30.8622C539.405 31.2301 539.541 31.5085 539.812 31.6974C540.084 31.883 540.43 31.9759 540.851 31.9759ZM549.493 33.1541C548.754 33.1541 548.118 32.9867 547.584 32.652C547.054 32.3139 546.646 31.8482 546.361 31.255C546.076 30.6617 545.934 29.9822 545.934 29.2166C545.934 28.4411 546.079 27.7566 546.371 27.1634C546.663 26.5668 547.074 26.1011 547.604 25.7663C548.134 25.4316 548.759 25.2642 549.478 25.2642C550.058 25.2642 550.575 25.3719 551.029 25.5874C551.484 25.7995 551.85 26.0978 552.128 26.4822C552.41 26.8667 552.577 27.3158 552.63 27.8295H551.184C551.104 27.4716 550.922 27.1634 550.637 26.9048C550.355 26.6463 549.977 26.517 549.503 26.517C549.089 26.517 548.726 26.6264 548.414 26.8452C548.106 27.0606 547.866 27.3688 547.694 27.7699C547.521 28.1676 547.435 28.6383 547.435 29.1818C547.435 29.7386 547.52 30.2192 547.689 30.6236C547.858 31.0279 548.096 31.3411 548.404 31.5632C548.716 31.7853 549.082 31.8963 549.503 31.8963C549.785 31.8963 550.04 31.8449 550.269 31.7422C550.501 31.6361 550.695 31.4853 550.85 31.2898C551.01 31.0942 551.121 30.8589 551.184 30.5838H552.63C552.577 31.0777 552.417 31.5185 552.148 31.9062C551.88 32.294 551.52 32.599 551.069 32.821C550.622 33.0431 550.096 33.1541 549.493 33.1541ZM557.785 25.3636V26.5568H553.613V25.3636H557.785ZM554.732 23.5341H556.219V30.7578C556.219 31.0462 556.262 31.2633 556.348 31.4091C556.434 31.5516 556.545 31.6494 556.681 31.7024C556.82 31.7521 556.971 31.777 557.133 31.777C557.253 31.777 557.357 31.7687 557.447 31.7521C557.536 31.7356 557.606 31.7223 557.655 31.7124L557.924 32.9403C557.838 32.9735 557.715 33.0066 557.556 33.0398C557.397 33.0762 557.198 33.0961 556.959 33.0994C556.568 33.1061 556.204 33.0365 555.866 32.8906C555.528 32.7448 555.254 32.5194 555.045 32.2145C554.836 31.9096 554.732 31.5268 554.732 31.0661V23.5341Z" fill="#565E6D"/>
</g>
<rect x="962" y="9" width="249" height="35" fill="white"/>
<rect x="962" y="9" width="249" height="35" stroke="#BCC1CA"/>
<path d="M1002.8 24.3636C1002.74 23.8598 1002.5 23.4688 1002.08 23.1903C1001.65 22.9119 1001.13 22.7727 1000.51 22.7727C1000.06 22.7727 999.669 22.8456 999.331 22.9915C998.996 23.1373 998.734 23.3378 998.545 23.593C998.36 23.8482 998.267 24.1383 998.267 24.4631C998.267 24.7348 998.332 24.9685 998.461 25.1641C998.594 25.3563 998.763 25.517 998.968 25.6463C999.174 25.7723 999.389 25.8767 999.614 25.9595C999.84 26.0391 1000.05 26.1037 1000.24 26.1534L1001.27 26.4318C1001.54 26.5014 1001.83 26.5975 1002.15 26.7202C1002.48 26.8428 1002.8 27.0102 1003.09 27.2223C1003.4 27.4311 1003.64 27.6996 1003.84 28.0277C1004.04 28.3558 1004.13 28.7585 1004.13 29.2358C1004.13 29.786 1003.99 30.2831 1003.7 30.7273C1003.42 31.1714 1003 31.5244 1002.45 31.7862C1001.9 32.0481 1001.24 32.179 1000.45 32.179C999.725 32.179 999.094 32.0613 998.56 31.826C998.03 31.5907 997.612 31.2625 997.308 30.8416C997.006 30.4207 996.835 29.9318 996.795 29.375H998.068C998.101 29.7595 998.231 30.0777 998.456 30.3295C998.685 30.5781 998.973 30.7637 999.321 30.8864C999.672 31.0057 1000.05 31.0653 1000.45 31.0653C1000.93 31.0653 1001.35 30.9891 1001.72 30.8366C1002.1 30.6809 1002.39 30.4654 1002.61 30.1903C1002.83 29.9119 1002.94 29.5871 1002.94 29.2159C1002.94 28.8778 1002.85 28.6027 1002.66 28.3906C1002.47 28.1785 1002.22 28.0062 1001.91 27.8736C1001.6 27.741 1001.27 27.625 1000.91 27.5256L999.659 27.1676C998.864 26.9389 998.234 26.6125 997.77 26.1882C997.306 25.764 997.074 25.2088 997.074 24.5227C997.074 23.9527 997.228 23.4555 997.536 23.0312C997.848 22.6037 998.265 22.2723 998.789 22.0369C999.316 21.7983 999.904 21.679 1000.55 21.679C1001.21 21.679 1001.79 21.7966 1002.3 22.032C1002.81 22.264 1003.22 22.5821 1003.52 22.9865C1003.82 23.3909 1003.98 23.8499 1003.99 24.3636H1002.8ZM1009.2 32.1591C1008.47 32.1591 1007.83 31.9967 1007.3 31.6719C1006.77 31.3438 1006.36 30.8864 1006.07 30.2997C1005.79 29.7098 1005.64 29.0237 1005.64 28.2415C1005.64 27.4593 1005.79 26.7699 1006.07 26.1733C1006.36 25.5734 1006.76 25.1061 1007.27 24.7713C1007.79 24.4332 1008.39 24.2642 1009.08 24.2642C1009.48 24.2642 1009.87 24.3305 1010.26 24.4631C1010.65 24.5956 1011 24.8111 1011.32 25.1094C1011.64 25.4044 1011.89 25.7955 1012.08 26.2827C1012.27 26.7699 1012.37 27.3698 1012.37 28.0824V28.5795H1006.48V27.5653H1011.17C1011.17 27.1345 1011.09 26.75 1010.91 26.4119C1010.74 26.0739 1010.5 25.8071 1010.19 25.6115C1009.88 25.416 1009.51 25.3182 1009.08 25.3182C1008.62 25.3182 1008.21 25.4342 1007.87 25.6662C1007.53 25.8949 1007.27 26.1932 1007.09 26.5611C1006.91 26.929 1006.82 27.3234 1006.82 27.7443V28.4205C1006.82 28.9972 1006.92 29.486 1007.12 29.8871C1007.32 30.2848 1007.6 30.5881 1007.96 30.7969C1008.31 31.0024 1008.73 31.1051 1009.2 31.1051C1009.51 31.1051 1009.79 31.062 1010.04 30.9759C1010.29 30.8864 1010.51 30.7538 1010.69 30.5781C1010.87 30.3991 1011.01 30.1771 1011.11 29.9119L1012.25 30.2301C1012.13 30.6146 1011.93 30.9527 1011.64 31.2443C1011.36 31.5327 1011.01 31.758 1010.6 31.9205C1010.19 32.0795 1009.72 32.1591 1009.2 32.1591ZM1016.4 32.179C1015.91 32.179 1015.47 32.0878 1015.08 31.9055C1014.69 31.7199 1014.37 31.4531 1014.14 31.1051C1013.91 30.7538 1013.79 30.3295 1013.79 29.8324C1013.79 29.3949 1013.88 29.0402 1014.05 28.7685C1014.22 28.4934 1014.45 28.2779 1014.74 28.1222C1015.03 27.9664 1015.35 27.8504 1015.7 27.7741C1016.05 27.6946 1016.4 27.6316 1016.76 27.5852C1017.22 27.5256 1017.6 27.4808 1017.88 27.451C1018.18 27.4179 1018.39 27.3632 1018.52 27.2869C1018.66 27.2107 1018.72 27.0781 1018.72 26.8892V26.8494C1018.72 26.3589 1018.59 25.9777 1018.32 25.706C1018.06 25.4342 1017.65 25.2983 1017.11 25.2983C1016.55 25.2983 1016.11 25.4209 1015.8 25.6662C1015.48 25.9115 1015.25 26.1733 1015.12 26.4517L1014.01 26.054C1014.21 25.59 1014.47 25.2287 1014.81 24.9702C1015.14 24.7083 1015.51 24.526 1015.9 24.4233C1016.3 24.3172 1016.69 24.2642 1017.07 24.2642C1017.32 24.2642 1017.6 24.294 1017.92 24.3537C1018.24 24.41 1018.55 24.5277 1018.85 24.7067C1019.15 24.8857 1019.4 25.1558 1019.6 25.517C1019.8 25.8783 1019.9 26.3622 1019.9 26.9688V32H1018.72V30.9659H1018.66C1018.58 31.1316 1018.45 31.3089 1018.27 31.4979C1018.08 31.6868 1017.83 31.8475 1017.53 31.9801C1017.22 32.1127 1016.84 32.179 1016.4 32.179ZM1016.58 31.125C1017.04 31.125 1017.43 31.0339 1017.75 30.8516C1018.07 30.6693 1018.31 30.4339 1018.48 30.1456C1018.64 29.8572 1018.72 29.554 1018.72 29.2358V28.1619C1018.67 28.2216 1018.56 28.2763 1018.4 28.326C1018.23 28.3724 1018.04 28.4138 1017.82 28.4503C1017.6 28.4834 1017.39 28.5133 1017.19 28.5398C1016.99 28.563 1016.82 28.5829 1016.7 28.5994C1016.39 28.6392 1016.11 28.7038 1015.84 28.7933C1015.58 28.8795 1015.37 29.0104 1015.2 29.1861C1015.04 29.3584 1014.97 29.5937 1014.97 29.892C1014.97 30.2997 1015.12 30.608 1015.42 30.8168C1015.72 31.0223 1016.11 31.125 1016.58 31.125ZM1022.04 32V24.3636H1023.17V25.517H1023.25C1023.39 25.1392 1023.64 24.8326 1024.01 24.5973C1024.37 24.362 1024.78 24.2443 1025.24 24.2443C1025.33 24.2443 1025.43 24.246 1025.56 24.2493C1025.69 24.2526 1025.79 24.2576 1025.86 24.2642V25.4574C1025.82 25.4474 1025.73 25.4325 1025.58 25.4126C1025.44 25.3894 1025.3 25.3778 1025.14 25.3778C1024.77 25.3778 1024.44 25.4557 1024.15 25.6115C1023.86 25.764 1023.63 25.9761 1023.46 26.2479C1023.29 26.5163 1023.21 26.8229 1023.21 27.1676V32H1022.04ZM1030.12 32.1591C1029.4 32.1591 1028.79 31.9901 1028.27 31.652C1027.75 31.3139 1027.35 30.8482 1027.07 30.255C1026.8 29.6617 1026.66 28.9839 1026.66 28.2216C1026.66 27.446 1026.8 26.7616 1027.08 26.1683C1027.37 25.5717 1027.77 25.1061 1028.29 24.7713C1028.81 24.4332 1029.41 24.2642 1030.1 24.2642C1030.63 24.2642 1031.12 24.3636 1031.55 24.5625C1031.98 24.7614 1032.33 25.0398 1032.61 25.3977C1032.88 25.7557 1033.05 26.1733 1033.12 26.6506H1031.95C1031.86 26.3026 1031.66 25.9943 1031.35 25.7259C1031.05 25.4541 1030.63 25.3182 1030.12 25.3182C1029.66 25.3182 1029.26 25.4375 1028.91 25.6761C1028.57 25.9115 1028.31 26.2446 1028.11 26.6754C1027.93 27.103 1027.83 27.6051 1027.83 28.1818C1027.83 28.7718 1027.92 29.2855 1028.11 29.723C1028.3 30.1605 1028.56 30.5002 1028.9 30.7422C1029.25 30.9841 1029.65 31.1051 1030.12 31.1051C1030.42 31.1051 1030.7 31.0521 1030.95 30.946C1031.2 30.84 1031.41 30.6875 1031.58 30.4886C1031.75 30.2898 1031.87 30.0511 1031.95 29.7727H1033.12C1033.05 30.2235 1032.89 30.6295 1032.63 30.9908C1032.37 31.3487 1032.03 31.6338 1031.6 31.8459C1031.17 32.0547 1030.68 32.1591 1030.12 32.1591ZM1036.01 27.4062V32H1034.84V21.8182H1036.01V25.5568H1036.11C1036.29 25.1624 1036.56 24.8492 1036.91 24.6172C1037.27 24.3819 1037.76 24.2642 1038.36 24.2642C1038.88 24.2642 1039.33 24.3686 1039.72 24.5774C1040.11 24.7829 1040.42 25.0994 1040.63 25.527C1040.85 25.9512 1040.96 26.4915 1040.96 27.1477V32H1039.79V27.2273C1039.79 26.6207 1039.63 26.1518 1039.31 25.8203C1039 25.4856 1038.57 25.3182 1038.02 25.3182C1037.63 25.3182 1037.29 25.3994 1036.98 25.5618C1036.68 25.7242 1036.44 25.9612 1036.27 26.2727C1036.1 26.5843 1036.01 26.9621 1036.01 27.4062ZM1047.04 34.8636V24.3636H1048.18V25.5767H1048.32C1048.4 25.4441 1048.52 25.2751 1048.68 25.0696C1048.83 24.8608 1049.05 24.6752 1049.34 24.5128C1049.63 24.3471 1050.03 24.2642 1050.52 24.2642C1051.17 24.2642 1051.73 24.425 1052.22 24.7464C1052.72 25.0679 1053.1 25.5237 1053.37 26.1136C1053.65 26.7036 1053.79 27.3996 1053.79 28.2017C1053.79 29.0104 1053.65 29.7114 1053.37 30.3047C1053.1 30.8946 1052.72 31.352 1052.23 31.6768C1051.74 31.9983 1051.18 32.1591 1050.54 32.1591C1050.05 32.1591 1049.66 32.0779 1049.37 31.9155C1049.07 31.7498 1048.84 31.5625 1048.69 31.3537C1048.53 31.1416 1048.4 30.9659 1048.32 30.8267H1048.22V34.8636H1047.04ZM1048.2 28.1818C1048.2 28.7585 1048.28 29.2673 1048.45 29.7081C1048.62 30.1456 1048.87 30.4886 1049.19 30.7372C1049.52 30.9825 1049.91 31.1051 1050.39 31.1051C1050.88 31.1051 1051.29 30.9759 1051.61 30.7173C1051.94 30.4555 1052.19 30.1042 1052.36 29.6634C1052.53 29.2192 1052.61 28.7254 1052.61 28.1818C1052.61 27.6449 1052.53 27.161 1052.36 26.7301C1052.2 26.2959 1051.95 25.9529 1051.62 25.701C1051.3 25.4458 1050.88 25.3182 1050.39 25.3182C1049.91 25.3182 1049.51 25.4392 1049.18 25.6811C1048.86 25.9197 1048.61 26.2545 1048.45 26.6854C1048.28 27.1129 1048.2 27.6117 1048.2 28.1818ZM1058.68 32.1591C1057.99 32.1591 1057.38 31.995 1056.86 31.6669C1056.35 31.3388 1055.94 30.8797 1055.65 30.2898C1055.36 29.6998 1055.22 29.0104 1055.22 28.2216C1055.22 27.4261 1055.36 26.7318 1055.65 26.1385C1055.94 25.5452 1056.35 25.0845 1056.86 24.7564C1057.38 24.4283 1057.99 24.2642 1058.68 24.2642C1059.37 24.2642 1059.97 24.4283 1060.49 24.7564C1061.01 25.0845 1061.41 25.5452 1061.7 26.1385C1061.99 26.7318 1062.14 27.4261 1062.14 28.2216C1062.14 29.0104 1061.99 29.6998 1061.7 30.2898C1061.41 30.8797 1061.01 31.3388 1060.49 31.6669C1059.97 31.995 1059.37 32.1591 1058.68 32.1591ZM1058.68 31.1051C1059.2 31.1051 1059.63 30.9709 1059.97 30.7024C1060.31 30.4339 1060.56 30.081 1060.72 29.6435C1060.88 29.206 1060.97 28.732 1060.97 28.2216C1060.97 27.7112 1060.88 27.2356 1060.72 26.7947C1060.56 26.3539 1060.31 25.9976 1059.97 25.7259C1059.63 25.4541 1059.2 25.3182 1058.68 25.3182C1058.15 25.3182 1057.72 25.4541 1057.39 25.7259C1057.05 25.9976 1056.8 26.3539 1056.63 26.7947C1056.47 27.2356 1056.39 27.7112 1056.39 28.2216C1056.39 28.732 1056.47 29.206 1056.63 29.6435C1056.8 30.081 1057.05 30.4339 1057.39 30.7024C1057.72 30.9709 1058.15 31.1051 1058.68 31.1051ZM1063.93 32V24.3636H1065.06V25.517H1065.14C1065.28 25.1392 1065.53 24.8326 1065.9 24.5973C1066.26 24.362 1066.67 24.2443 1067.13 24.2443C1067.22 24.2443 1067.32 24.246 1067.45 24.2493C1067.58 24.2526 1067.68 24.2576 1067.75 24.2642V25.4574C1067.71 25.4474 1067.62 25.4325 1067.47 25.4126C1067.33 25.3894 1067.19 25.3778 1067.03 25.3778C1066.66 25.3778 1066.33 25.4557 1066.04 25.6115C1065.75 25.764 1065.52 25.9761 1065.35 26.2479C1065.19 26.5163 1065.1 26.8229 1065.1 27.1676V32H1063.93ZM1072.94 24.3636V25.358H1068.98V24.3636H1072.94ZM1070.13 22.5341H1071.31V29.8125C1071.31 30.1439 1071.36 30.3925 1071.45 30.5582C1071.55 30.7206 1071.68 30.83 1071.83 30.8864C1071.98 30.9394 1072.15 30.9659 1072.32 30.9659C1072.45 30.9659 1072.56 30.9593 1072.64 30.946C1072.72 30.9295 1072.79 30.9162 1072.84 30.9062L1073.08 31.9602C1073 31.9901 1072.89 32.0199 1072.74 32.0497C1072.6 32.0829 1072.42 32.0994 1072.2 32.0994C1071.87 32.0994 1071.55 32.0282 1071.23 31.8857C1070.91 31.7431 1070.65 31.526 1070.44 31.2344C1070.24 30.9427 1070.13 30.5748 1070.13 30.1307V22.5341ZM1078.1 24.3636V25.358H1073.99V24.3636H1078.1ZM1075.22 32V23.3097C1075.22 22.8722 1075.32 22.5076 1075.53 22.2159C1075.73 21.9242 1076 21.7055 1076.33 21.5597C1076.66 21.4138 1077 21.3409 1077.37 21.3409C1077.66 21.3409 1077.89 21.3641 1078.07 21.4105C1078.26 21.4569 1078.39 21.5 1078.48 21.5398L1078.14 22.554C1078.08 22.5341 1078 22.5092 1077.89 22.4794C1077.79 22.4496 1077.66 22.4347 1077.49 22.4347C1077.1 22.4347 1076.82 22.5324 1076.65 22.728C1076.48 22.9235 1076.39 23.2102 1076.39 23.5881V32H1075.22ZM1082.54 32.1591C1081.85 32.1591 1081.24 31.995 1080.72 31.6669C1080.2 31.3388 1079.8 30.8797 1079.51 30.2898C1079.22 29.6998 1079.08 29.0104 1079.08 28.2216C1079.08 27.4261 1079.22 26.7318 1079.51 26.1385C1079.8 25.5452 1080.2 25.0845 1080.72 24.7564C1081.24 24.4283 1081.85 24.2642 1082.54 24.2642C1083.22 24.2642 1083.83 24.4283 1084.35 24.7564C1084.87 25.0845 1085.27 25.5452 1085.56 26.1385C1085.85 26.7318 1086 27.4261 1086 28.2216C1086 29.0104 1085.85 29.6998 1085.56 30.2898C1085.27 30.8797 1084.87 31.3388 1084.35 31.6669C1083.83 31.995 1083.22 32.1591 1082.54 32.1591ZM1082.54 31.1051C1083.06 31.1051 1083.49 30.9709 1083.83 30.7024C1084.17 30.4339 1084.42 30.081 1084.58 29.6435C1084.74 29.206 1084.82 28.732 1084.82 28.2216C1084.82 27.7112 1084.74 27.2356 1084.58 26.7947C1084.42 26.3539 1084.17 25.9976 1083.83 25.7259C1083.49 25.4541 1083.06 25.3182 1082.54 25.3182C1082.01 25.3182 1081.58 25.4541 1081.24 25.7259C1080.9 25.9976 1080.65 26.3539 1080.49 26.7947C1080.33 27.2356 1080.25 27.7112 1080.25 28.2216C1080.25 28.732 1080.33 29.206 1080.49 29.6435C1080.65 30.081 1080.9 30.4339 1081.24 30.7024C1081.58 30.9709 1082.01 31.1051 1082.54 31.1051ZM1088.96 21.8182V32H1087.79V21.8182H1088.96ZM1091.11 32V24.3636H1092.28V32H1091.11ZM1091.71 23.0909C1091.48 23.0909 1091.28 23.013 1091.11 22.8572C1090.95 22.7015 1090.87 22.5142 1090.87 22.2955C1090.87 22.0767 1090.95 21.8894 1091.11 21.7337C1091.28 21.5779 1091.48 21.5 1091.71 21.5C1091.93 21.5 1092.13 21.5779 1092.29 21.7337C1092.46 21.8894 1092.54 22.0767 1092.54 22.2955C1092.54 22.5142 1092.46 22.7015 1092.29 22.8572C1092.13 23.013 1091.93 23.0909 1091.71 23.0909ZM1097.53 32.1591C1096.84 32.1591 1096.24 31.995 1095.72 31.6669C1095.2 31.3388 1094.8 30.8797 1094.51 30.2898C1094.22 29.6998 1094.07 29.0104 1094.07 28.2216C1094.07 27.4261 1094.22 26.7318 1094.51 26.1385C1094.8 25.5452 1095.2 25.0845 1095.72 24.7564C1096.24 24.4283 1096.84 24.2642 1097.53 24.2642C1098.22 24.2642 1098.83 24.4283 1099.34 24.7564C1099.86 25.0845 1100.27 25.5452 1100.56 26.1385C1100.85 26.7318 1100.99 27.4261 1100.99 28.2216C1100.99 29.0104 1100.85 29.6998 1100.56 30.2898C1100.27 30.8797 1099.86 31.3388 1099.34 31.6669C1098.83 31.995 1098.22 32.1591 1097.53 32.1591ZM1097.53 31.1051C1098.06 31.1051 1098.49 30.9709 1098.83 30.7024C1099.16 30.4339 1099.41 30.081 1099.58 29.6435C1099.74 29.206 1099.82 28.732 1099.82 28.2216C1099.82 27.7112 1099.74 27.2356 1099.58 26.7947C1099.41 26.3539 1099.16 25.9976 1098.83 25.7259C1098.49 25.4541 1098.06 25.3182 1097.53 25.3182C1097.01 25.3182 1096.58 25.4541 1096.24 25.7259C1095.9 25.9976 1095.65 26.3539 1095.49 26.7947C1095.33 27.2356 1095.25 27.7112 1095.25 28.2216C1095.25 28.732 1095.33 29.206 1095.49 29.6435C1095.65 30.081 1095.9 30.4339 1096.24 30.7024C1096.58 30.9709 1097.01 31.1051 1097.53 31.1051ZM1103.64 32.0795C1103.39 32.0795 1103.18 31.9917 1103.01 31.8161C1102.83 31.6404 1102.75 31.4299 1102.75 31.1847C1102.75 30.9394 1102.83 30.7289 1103.01 30.5533C1103.18 30.3776 1103.39 30.2898 1103.64 30.2898C1103.89 30.2898 1104.1 30.3776 1104.27 30.5533C1104.45 30.7289 1104.53 30.9394 1104.53 31.1847C1104.53 31.3471 1104.49 31.4962 1104.41 31.6321C1104.33 31.768 1104.22 31.8774 1104.09 31.9602C1103.95 32.0398 1103.81 32.0795 1103.64 32.0795ZM1107.5 32.0795C1107.25 32.0795 1107.04 31.9917 1106.86 31.8161C1106.69 31.6404 1106.6 31.4299 1106.6 31.1847C1106.6 30.9394 1106.69 30.7289 1106.86 30.5533C1107.04 30.3776 1107.25 30.2898 1107.5 30.2898C1107.74 30.2898 1107.95 30.3776 1108.13 30.5533C1108.3 30.7289 1108.39 30.9394 1108.39 31.1847C1108.39 31.3471 1108.35 31.4962 1108.27 31.6321C1108.19 31.768 1108.08 31.8774 1107.94 31.9602C1107.81 32.0398 1107.66 32.0795 1107.5 32.0795ZM1111.35 32.0795C1111.11 32.0795 1110.9 31.9917 1110.72 31.8161C1110.54 31.6404 1110.46 31.4299 1110.46 31.1847C1110.46 30.9394 1110.54 30.7289 1110.72 30.5533C1110.9 30.3776 1111.11 30.2898 1111.35 30.2898C1111.6 30.2898 1111.81 30.3776 1111.98 30.5533C1112.16 30.7289 1112.25 30.9394 1112.25 31.1847C1112.25 31.3471 1112.2 31.4962 1112.12 31.6321C1112.04 31.768 1111.93 31.8774 1111.8 31.9602C1111.67 32.0398 1111.52 32.0795 1111.35 32.0795Z" fill="#BCC1CA"/>
<path d="M984.622 29.6225C984.868 29.3772 985.256 29.3621 985.519 29.5768L985.57 29.6225L988.478 32.5302L988.524 32.5812C988.738 32.8444 988.723 33.2324 988.478 33.4776C988.232 33.7228 987.844 33.7385 987.581 33.5241L987.53 33.4776L984.622 30.57L984.577 30.5189C984.362 30.2557 984.377 29.8678 984.622 29.6225Z" fill="#171A1F"/>
<path d="M986.02 26.33C986.02 23.7398 983.92 21.64 981.33 21.64C978.74 21.64 976.64 23.7398 976.64 26.33C976.64 28.9203 978.74 31.02 981.33 31.02C983.92 31.02 986.02 28.9203 986.02 26.33ZM987.36 26.33C987.36 29.6604 984.66 32.36 981.33 32.36C978 32.36 975.3 29.6604 975.3 26.33C975.3 22.9998 978 20.3 981.33 20.3C984.66 20.3 987.36 22.9998 987.36 26.33Z" fill="#171A1F"/>
<path d="M1241.3 30.302C1241.61 29.9982 1242.09 29.9794 1242.41 30.2453L1242.48 30.302L1246.08 33.9042L1246.14 33.9673C1246.4 34.2933 1246.38 34.774 1246.08 35.0778C1245.77 35.3816 1245.29 35.401 1244.97 35.1354L1244.9 35.0778L1241.3 31.4757L1241.25 31.4125C1240.98 31.0865 1241 30.6059 1241.3 30.302Z" fill="#171A1F"/>
<path d="M1242.98 26.17C1242.98 22.9612 1240.38 20.36 1237.17 20.36C1233.96 20.36 1231.36 22.9612 1231.36 26.17C1231.36 29.3787 1233.96 31.98 1237.17 31.98C1240.38 31.98 1242.98 29.3787 1242.98 26.17ZM1244.64 26.17C1244.64 30.2955 1241.3 33.64 1237.17 33.64C1233.04 33.64 1229.7 30.2955 1229.7 26.17C1229.7 22.0444 1233.04 18.7 1237.17 18.7C1241.3 18.7 1244.64 22.0444 1244.64 26.17Z" fill="#171A1F"/>
<path d="M1274.76 34.0187C1275.01 33.6774 1275.48 33.5713 1275.85 33.7861C1276.22 34.001 1276.37 34.4609 1276.2 34.8447L1276.16 34.92C1275.94 35.2984 1275.62 35.6126 1275.25 35.8311C1274.87 36.0496 1274.44 36.1649 1274 36.165C1273.56 36.165 1273.13 36.0496 1272.76 35.8311C1272.42 35.6399 1272.14 35.3754 1271.93 35.0586L1271.84 34.92L1271.8 34.8447C1271.63 34.4609 1271.78 34.001 1272.15 33.7861C1272.52 33.5713 1272.99 33.6774 1273.24 34.0187L1273.28 34.09L1273.34 34.1808C1273.41 34.2669 1273.49 34.3394 1273.59 34.394C1273.71 34.4667 1273.85 34.505 1274 34.505C1274.15 34.5049 1274.29 34.4668 1274.42 34.394C1274.54 34.3212 1274.65 34.2161 1274.72 34.09L1274.76 34.0187Z" fill="#171A1F"/>
<path d="M1278.15 23.675C1278.15 22.5745 1277.71 21.5191 1276.93 20.7408C1276.16 19.9625 1275.1 19.525 1274 19.525C1272.9 19.525 1271.84 19.9626 1271.07 20.7408C1270.29 21.5191 1269.85 22.5744 1269.85 23.675L1269.85 24.0349C1269.81 25.7985 1269.51 27.0592 1269.05 28.0439C1268.56 29.0813 1267.91 29.751 1267.36 30.315L1280.64 30.315C1280.09 29.7507 1279.44 29.0806 1278.95 28.0439C1278.46 26.9933 1278.15 25.6289 1278.15 23.675ZM1279.81 23.675C1279.81 25.4551 1280.09 26.5625 1280.45 27.3346C1280.73 27.9151 1281.07 28.3415 1281.45 28.7587L1281.85 29.1786L1281.87 29.1981C1282.08 29.436 1282.23 29.7316 1282.28 30.0491C1282.33 30.3665 1282.29 30.6921 1282.16 30.9861C1282.03 31.2802 1281.82 31.5304 1281.55 31.7059C1281.31 31.8595 1281.04 31.9508 1280.76 31.9709L1280.64 31.975L1267.36 31.975C1267.04 31.9747 1266.72 31.8809 1266.45 31.7051C1266.18 31.5293 1265.97 31.2789 1265.84 30.9845C1265.71 30.6902 1265.67 30.3642 1265.72 30.0467C1265.77 29.7293 1265.92 29.434 1266.13 29.1964L1266.15 29.1778L1266.55 28.7587C1266.94 28.3417 1267.27 27.9151 1267.55 27.3346C1267.89 26.6107 1268.15 25.5922 1268.19 24.0008L1268.19 23.675C1268.19 22.1341 1268.8 20.6559 1269.89 19.5663C1270.98 18.477 1272.46 17.865 1274 17.865C1275.54 17.865 1277.02 18.4768 1278.11 19.5663C1279.2 20.6559 1279.81 22.1341 1279.81 23.675Z" fill="#171A1F"/>
<path d="M1311.01 20.36C1311.01 20.1399 1310.93 19.9288 1310.77 19.7732C1310.61 19.6176 1310.4 19.53 1310.18 19.53H1309.82C1309.6 19.53 1309.39 19.6176 1309.23 19.7732C1309.08 19.9288 1308.99 20.1399 1308.99 20.36V20.5099C1308.99 20.9466 1308.87 21.3761 1308.65 21.7541C1308.43 22.132 1308.12 22.4461 1307.74 22.6644L1307.74 22.6636L1307.39 22.8703L1307.39 22.8719C1307.01 23.0903 1306.58 23.205 1306.14 23.205C1305.7 23.205 1305.27 23.0904 1304.9 22.8719L1304.8 22.8184L1304.77 22.8054C1304.58 22.6956 1304.35 22.6659 1304.14 22.7227C1303.96 22.7725 1303.79 22.8847 1303.68 23.0397L1303.64 23.1086L1303.46 23.4239C1303.35 23.6139 1303.32 23.8394 1303.37 24.0512C1303.42 24.2371 1303.54 24.3994 1303.69 24.5108L1303.76 24.5554L1303.8 24.5829L1303.93 24.6656C1304.28 24.8814 1304.58 25.1821 1304.79 25.5426C1305.01 25.9183 1305.13 26.345 1305.13 26.7795V27.2043L1305.12 27.368C1305.1 27.7498 1304.99 28.122 1304.8 28.4549C1304.58 28.8314 1304.27 29.1436 1303.89 29.3628L1303.9 29.3636L1303.77 29.4381L1303.76 29.4446C1303.57 29.5548 1303.43 29.7363 1303.37 29.9487C1303.32 30.1606 1303.35 30.3861 1303.46 30.5761L1303.64 30.8914C1303.75 31.0817 1303.93 31.2205 1304.14 31.2772C1304.35 31.334 1304.58 31.3044 1304.77 31.1946L1304.8 31.1816L1304.9 31.1281L1305.04 31.0511C1305.38 30.8827 1305.76 30.795 1306.14 30.795C1306.52 30.795 1306.9 30.8828 1307.24 31.0511L1307.39 31.1281L1307.39 31.1297L1307.74 31.3356C1308.12 31.5539 1308.43 31.868 1308.65 32.2458C1308.87 32.6239 1308.99 33.0534 1308.99 33.49V33.64C1308.99 33.8601 1309.08 34.0712 1309.23 34.2268C1309.39 34.3824 1309.6 34.47 1309.82 34.47H1310.18C1310.4 34.47 1310.61 34.3824 1310.77 34.2268C1310.93 34.0712 1311.01 33.8601 1311.01 33.64V33.49L1311.02 33.3263C1311.04 32.9466 1311.16 32.5766 1311.35 32.2458C1311.54 31.9153 1311.8 31.6338 1312.12 31.4223L1312.26 31.3356L1312.61 31.1297L1312.62 31.1281L1312.76 31.0511C1313.1 30.8828 1313.48 30.795 1313.86 30.795C1314.3 30.795 1314.73 30.9096 1315.11 31.1281L1315.23 31.1946C1315.42 31.3044 1315.65 31.334 1315.86 31.2772C1316.07 31.2205 1316.25 31.0817 1316.36 30.8914L1316.54 30.5761L1316.54 30.5697L1316.58 30.4959C1316.66 30.3222 1316.68 30.1256 1316.63 29.9399C1316.57 29.7275 1316.43 29.5467 1316.24 29.4365L1316.14 29.3838C1316.13 29.3795 1316.13 29.3755 1316.12 29.3708C1315.74 29.1514 1315.42 28.8354 1315.2 28.4549C1314.98 28.0745 1314.87 27.643 1314.87 27.2043V26.7925C1314.87 26.3549 1314.99 25.9245 1315.2 25.5451C1315.42 25.1687 1315.73 24.8555 1316.11 24.6364L1316.23 24.5619L1316.24 24.5554L1316.31 24.5108C1316.46 24.3994 1316.58 24.2371 1316.63 24.0512C1316.68 23.8394 1316.65 23.6139 1316.54 23.4239L1316.36 23.1078C1316.25 22.9175 1316.07 22.7795 1315.86 22.7227C1315.67 22.673 1315.48 22.6896 1315.3 22.7681L1315.23 22.8054C1315.22 22.81 1315.21 22.8141 1315.2 22.8184L1315.1 22.8711L1315.11 22.8719C1314.73 23.0904 1314.3 23.205 1313.86 23.205C1313.42 23.205 1312.99 23.0903 1312.62 22.8719L1312.61 22.8703L1312.26 22.6636C1311.88 22.4453 1311.57 22.132 1311.35 21.7541C1311.13 21.3761 1311.01 20.9466 1311.01 20.5099V20.36ZM1312.67 20.5083L1312.68 20.6169C1312.69 20.7245 1312.73 20.8288 1312.78 20.9233C1312.84 21.0178 1312.91 21.1005 1313 21.1665L1313.09 21.2281L1313.44 21.434C1313.57 21.5067 1313.71 21.545 1313.86 21.545C1314.01 21.545 1314.15 21.5068 1314.28 21.434L1314.3 21.4202L1314.42 21.3537C1314.99 21.0352 1315.66 20.9507 1316.29 21.1187C1316.84 21.2678 1317.33 21.6051 1317.66 22.0694L1317.8 22.2761L1317.98 22.5922L1317.98 22.5931L1318.09 22.8119C1318.33 23.3332 1318.38 23.9226 1318.23 24.48C1318.06 25.1133 1317.65 25.6532 1317.08 25.9844L1317.08 25.9852L1316.95 26.0671C1316.82 26.1402 1316.72 26.2459 1316.64 26.3726C1316.57 26.4993 1316.53 26.6431 1316.53 26.7893V27.2107C1316.53 27.3569 1316.57 27.5007 1316.64 27.6274C1316.71 27.7522 1316.82 27.8559 1316.94 27.9288L1317.05 27.9856L1317.07 28.0002L1317.28 28.1339C1317.74 28.4682 1318.08 28.9537 1318.23 29.5111C1318.4 30.1455 1318.31 30.8209 1317.98 31.3907L1317.99 31.3915L1317.8 31.7157L1317.8 31.7239C1317.47 32.2946 1316.92 32.7109 1316.29 32.8813C1315.66 33.0494 1314.99 32.9634 1314.42 32.6447V32.6462L1314.3 32.5798C1314.29 32.5754 1314.28 32.5706 1314.28 32.5661C1314.15 32.4933 1314.01 32.455 1313.86 32.455C1313.71 32.455 1313.57 32.4933 1313.45 32.5661L1313.44 32.5652L1313.09 32.7719L1313 32.8335C1312.91 32.8996 1312.84 32.9821 1312.78 33.0767C1312.71 33.2027 1312.67 33.3461 1312.67 33.4917V33.64C1312.67 34.3003 1312.41 34.9335 1311.94 35.4005C1311.48 35.8675 1310.84 36.13 1310.18 36.13H1309.82C1309.16 36.13 1308.52 35.8675 1308.06 35.4005C1307.59 34.9335 1307.33 34.3003 1307.33 33.64V33.4917L1307.32 33.383C1307.31 33.2755 1307.27 33.1712 1307.22 33.0767C1307.16 32.9821 1307.09 32.8996 1307 32.8335L1306.91 32.7719L1306.56 32.5652C1306.43 32.4924 1306.29 32.455 1306.14 32.455C1306.03 32.455 1305.92 32.4767 1305.82 32.5182L1305.73 32.5661C1305.72 32.5706 1305.71 32.5754 1305.7 32.5798L1305.58 32.6462L1305.58 32.6447C1305.01 32.963 1304.34 33.0493 1303.71 32.8813C1303.16 32.7322 1302.67 32.3949 1302.34 31.9305L1302.2 31.7239L1302.02 31.4077L1302.02 31.407C1301.69 30.8357 1301.6 30.1571 1301.77 29.52C1301.94 28.8868 1302.35 28.346 1302.92 28.0148L1303.05 27.9329L1303.14 27.8722C1303.23 27.8058 1303.3 27.7225 1303.36 27.6274C1303.43 27.5007 1303.47 27.3569 1303.47 27.2107V26.7893L1303.46 26.6814C1303.45 26.5745 1303.41 26.4706 1303.36 26.3767C1303.3 26.2829 1303.23 26.2007 1303.14 26.1351L1303.05 26.0751L1303.01 26.0468L1302.88 25.9642C1302.34 25.6313 1301.94 25.1003 1301.77 24.48C1301.6 23.8429 1301.69 23.1643 1302.02 22.5931L1302.02 22.5914L1302.2 22.2761L1302.34 22.0694C1302.67 21.6051 1303.16 21.2678 1303.71 21.1187C1304.34 20.9507 1305.01 21.0363 1305.58 21.3545L1305.58 21.3537L1305.7 21.4202L1305.73 21.434L1305.82 21.4818C1305.92 21.5233 1306.03 21.545 1306.14 21.545C1306.25 21.545 1306.36 21.5233 1306.46 21.4818L1306.56 21.434L1306.91 21.2281L1307 21.1665C1307.09 21.1005 1307.16 21.0178 1307.22 20.9233C1307.29 20.7975 1307.33 20.6545 1307.33 20.5091V20.36C1307.33 19.6997 1307.59 19.0664 1308.06 18.5995C1308.52 18.1325 1309.16 17.87 1309.82 17.87H1310.18C1310.84 17.87 1311.48 18.1325 1311.94 18.5995C1312.41 19.0664 1312.67 19.6997 1312.67 20.36V20.5083Z" fill="#171A1F"/>
<path d="M1311.66 27.0001C1311.66 26.0832 1310.92 25.3401 1310 25.3401C1309.08 25.3401 1308.34 26.0832 1308.34 27.0001C1308.34 27.9169 1309.08 28.6601 1310 28.6601C1310.92 28.6601 1311.66 27.9169 1311.66 27.0001ZM1313.32 27.0001C1313.32 28.8336 1311.83 30.3201 1310 30.3201C1308.17 30.3201 1306.68 28.8336 1306.68 27.0001C1306.68 25.1665 1308.17 23.6801 1310 23.6801C1311.83 23.6801 1313.32 25.1665 1313.32 27.0001Z" fill="#171A1F"/>
<rect x="1336" y="11" width="32" height="32" rx="16" fill="#9095A0"/>
<path d="M1353.2 28.6H1350.8C1348.81 28.6 1347.2 30.2116 1347.2 32.2C1347.2 32.2 1349 33 1352 33C1355 33 1356.8 32.2 1356.8 32.2C1356.8 30.2116 1355.19 28.6 1353.2 28.6Z" stroke="white" stroke-width="0.96" stroke-miterlimit="10" stroke-linecap="square"/>
<path d="M1349.2 23.8C1349.2 22.2536 1350.45 21 1352 21C1353.55 21 1354.8 22.2536 1354.8 23.8C1354.8 25.3464 1353.55 27 1352 27C1350.45 27 1349.2 25.3464 1349.2 23.8Z" stroke="white" stroke-width="0.96" stroke-miterlimit="10" stroke-linecap="square"/>
<defs>
<clipPath id="clip0_4_4">
<rect width="40" height="22" fill="white" transform="translate(243 17)"/>
</clipPath>
<clipPath id="clip1_4_4">
<rect width="77" height="22" fill="white" transform="translate(481 17)"/>
</clipPath>
</defs>
</svg>
