<svg width="26" height="36" viewBox="0 0 26 36" fill="none" xmlns="http://www.w3.org/2000/svg">
<path d="M24.5953 26.6632C27.9337 14.9013 18.7922 0 18.7922 0C18.7922 0 3.42391 8.32847 0.431546 20.1942C0.431546 20.2115 0.414221 20.2288 0.414221 20.2547C0.405581 20.2979 0.396941 20.3412 0.388301 20.3758C0.353696 20.5228 0.310451 20.6612 0.275846 20.8082H0.293171C-1.13382 27.3032 2.77528 33.8328 9.26163 35.5712C15.748 37.3095 22.3986 33.6079 24.4051 27.2772H24.4224C24.4656 27.1389 24.5002 26.9919 24.5434 26.8535C24.5521 26.8102 24.5694 26.7756 24.5867 26.7324C24.5867 26.7151 24.5867 26.6892 24.5953 26.6719V26.6632Z" fill="#8E8E8E"/>
</svg>
