<svg width="18" height="28" viewBox="0 0 18 28" fill="none" xmlns="http://www.w3.org/2000/svg">
<path fill-rule="evenodd" clip-rule="evenodd" d="M8.5973 0C12.1342 3.39212 15.5103 7.73217 16.7581 12.6805C16.7581 12.6949 16.7635 12.7067 16.7682 12.7173C16.7721 12.726 16.7757 12.7339 16.7757 12.7417C16.7844 12.7767 16.7931 12.8204 16.8019 12.8642C16.8456 13.0128 16.8806 13.1615 16.9156 13.3102L16.8981 13.3103C18.284 19.6096 14.6935 25.9494 8.5973 28C2.5011 25.9493 -1.08937 19.6093 0.29651 13.3015H0.278988C0.29651 13.2272 0.316171 13.155 0.335832 13.0828C0.355539 13.0107 0.3752 12.9385 0.392722 12.8642C0.40146 12.8292 0.410198 12.7854 0.418937 12.7417C0.418937 12.7273 0.424262 12.7155 0.428995 12.7049C0.432909 12.6962 0.436458 12.6883 0.436458 12.6805C1.68434 7.73217 5.06036 3.39212 8.5973 0Z" fill="#757575" fill-opacity="0.2"/>
</svg>
