<svg width="26" height="36" viewBox="0 0 26 36" fill="none" xmlns="http://www.w3.org/2000/svg">
<path d="M24.8972 20.1942C21.9048 8.32847 6.53647 0 6.53647 0C6.53647 0 -2.60495 14.9013 0.733361 26.6632C0.733361 26.6805 0.73336 26.7065 0.742009 26.7237C0.750658 26.767 0.767956 26.8016 0.78525 26.8448C0.828495 26.9919 0.863086 27.1302 0.906331 27.2772H0.923625C2.93872 33.6079 9.58073 37.3095 16.0671 35.5712C22.5534 33.8328 26.4626 27.3032 25.0356 20.8169H25.0528C25.0182 20.6699 24.9836 20.5228 24.9404 20.3758C24.9318 20.3325 24.9231 20.2893 24.9145 20.2547C24.9145 20.2374 24.8972 20.2201 24.8972 20.1942Z" fill="#757575"/>
</svg>
