<svg width="17" height="19" viewBox="0 0 17 19" fill="none" xmlns="http://www.w3.org/2000/svg">
<path d="M9.53491 2.54549C9.53491 2.32045 9.44548 2.10471 9.2863 1.94558C9.12721 1.78653 8.91135 1.697 8.68641 1.697L8.3135 1.697C8.08856 1.697 7.8727 1.78653 7.71361 1.94558C7.55452 2.10471 7.465 2.32045 7.465 2.54549V2.69878C7.46457 3.14517 7.34621 3.58424 7.1228 3.97071C6.89947 4.35698 6.57872 4.67811 6.19229 4.90124L6.19146 4.9004L5.82936 5.1117L5.82687 5.11336C5.44 5.33663 5.00081 5.45391 4.55413 5.45391C4.10741 5.45386 3.66824 5.33672 3.28138 5.11336L3.17946 5.05867L3.15461 5.04541C2.95991 4.93312 2.72873 4.90283 2.5116 4.96089C2.32148 5.01174 2.15568 5.12649 2.04178 5.28488L1.9962 5.35531L1.80976 5.67764C1.69819 5.87196 1.66826 6.10246 1.72608 6.31899C1.77689 6.50904 1.89175 6.67491 2.05007 6.78881L2.1205 6.83438L2.16607 6.86255L2.29285 6.94707C2.657 7.16767 2.96021 7.47507 3.17449 7.8436C3.39777 8.22771 3.51651 8.66384 3.51919 9.10811V9.54229L3.51422 9.7097C3.49005 10.1 3.37672 10.4805 3.18112 10.8208C2.95993 11.2057 2.64111 11.5249 2.25804 11.7489L2.25887 11.7497L2.13127 11.8259L2.1205 11.8326C1.92599 11.9452 1.78414 12.1308 1.72608 12.3479C1.66826 12.5645 1.69819 12.795 1.80976 12.9893L1.99537 13.3117C2.10803 13.5061 2.29447 13.648 2.5116 13.706C2.72873 13.7641 2.95991 13.7338 3.15461 13.6215L3.17946 13.6083L3.28138 13.5536L3.42887 13.4749C3.77818 13.3027 4.16321 13.2131 4.55413 13.2131C4.94496 13.2131 5.33012 13.3028 5.67938 13.4749L5.82687 13.5536L5.82936 13.5553L6.19146 13.7657C6.57789 13.9888 6.89947 14.31 7.1228 14.6962C7.34621 15.0827 7.46457 15.5217 7.465 15.9681V16.1215C7.465 16.3465 7.55452 16.5622 7.71361 16.7213C7.8727 16.8804 8.08856 16.97 8.3135 16.97H8.68641C8.91135 16.97 9.12721 16.8804 9.2863 16.7213C9.44548 16.5622 9.53491 16.3465 9.53491 16.1215V15.9681L9.54068 15.8008C9.56664 15.4126 9.6817 15.0344 9.87711 14.6962C10.0725 14.3583 10.3427 14.0705 10.666 13.8544L10.8077 13.7657L11.1706 13.5553L11.1731 13.5536L11.3206 13.4749C11.6698 13.3028 12.0549 13.2131 12.4458 13.2131C12.8925 13.2131 13.3317 13.3302 13.7186 13.5536L13.8454 13.6215C14.04 13.7338 14.2712 13.7641 14.4884 13.706C14.7055 13.648 14.8911 13.5061 15.0037 13.3117L15.1852 12.9893L15.1894 12.9827L15.2275 12.9073C15.3077 12.7297 15.3246 12.5287 15.2739 12.3389C15.2158 12.1218 15.0738 11.9369 14.8794 11.8242L14.7784 11.7704C14.7701 11.766 14.7617 11.7619 14.7535 11.7571C14.3651 11.5329 14.0423 11.2098 13.8188 10.8208C13.5953 10.4319 13.479 9.9908 13.4808 9.54229V9.12135C13.4796 8.67402 13.5959 8.23399 13.8188 7.84614C14.0399 7.46134 14.3581 7.1412 14.741 6.91724L14.8686 6.84101L14.8794 6.83438L14.9499 6.78881C15.1082 6.67491 15.2231 6.50904 15.2739 6.31899C15.3317 6.10246 15.3017 5.87196 15.1901 5.67764L15.0037 5.35449C14.8911 5.15999 14.7055 5.01896 14.4884 4.96089C14.2983 4.91009 14.0976 4.927 13.9199 5.0073L13.8454 5.04541C13.8372 5.0501 13.8287 5.05426 13.8205 5.05867L13.7177 5.11253L13.7186 5.11336C13.3317 5.33672 12.8925 5.45386 12.4458 5.45391C11.9991 5.45391 11.5599 5.33663 11.1731 5.11336L11.1706 5.1117L10.8077 4.9004C10.4212 4.67729 10.1005 4.35698 9.87711 3.97071C9.6537 3.58424 9.53533 3.14517 9.53491 2.69878V2.54549ZM11.2319 2.69713L11.2394 2.80816C11.254 2.9181 11.2904 3.02474 11.3463 3.12138C11.4021 3.21798 11.4762 3.30248 11.5642 3.36996L11.6586 3.43294L12.0208 3.64341C12.1496 3.71779 12.2969 3.75692 12.4458 3.75692C12.5947 3.75687 12.7412 3.71782 12.8701 3.64341L12.895 3.62931L13.0217 3.56137C13.6007 3.23572 14.2842 3.14932 14.9267 3.32107C15.4966 3.47349 15.9936 3.81833 16.3353 4.29303L16.4721 4.50433L16.6585 4.82748L16.6593 4.82832L16.7745 5.05204C17.0153 5.58493 17.066 6.18746 16.9137 6.75732C16.7406 7.40469 16.3183 7.95662 15.7404 8.29525L15.7412 8.29601L15.602 8.37976C15.4725 8.45451 15.3649 8.56253 15.2904 8.69209C15.216 8.82166 15.1772 8.96862 15.1778 9.11804V9.54891C15.1772 9.69833 15.216 9.84529 15.2904 9.97485C15.3637 10.1025 15.4694 10.2084 15.5962 10.283L15.7039 10.3411L15.7305 10.356L15.9417 10.4927C16.4162 10.8344 16.7613 11.3308 16.9137 11.9005C17.0871 12.5491 16.996 13.2395 16.6626 13.822L16.6635 13.8229L16.477 14.1543L16.4721 14.1626C16.134 14.7461 15.5781 15.1716 14.9267 15.3458C14.2841 15.5177 13.6007 15.4298 13.0217 15.1039V15.1055L12.895 15.0377C12.8866 15.0332 12.8782 15.0282 12.8701 15.0236C12.7412 14.9492 12.5947 14.9101 12.4458 14.9101C12.2969 14.9101 12.1505 14.9492 12.0216 15.0236L12.0208 15.0227L11.6586 15.234L11.5642 15.297C11.4762 15.3645 11.4021 15.4489 11.3463 15.5456C11.2718 15.6744 11.2321 15.821 11.2319 15.9698V16.1215C11.2319 16.7964 10.9642 17.4438 10.487 17.9212C10.0096 18.3986 9.36148 18.6669 8.68641 18.6669H8.3135C7.63843 18.6669 6.99035 18.3986 6.51296 17.9212C6.03577 17.4438 5.76804 16.7964 5.76804 16.1215V15.9698L5.76058 15.8588C5.74599 15.7489 5.70955 15.6422 5.65369 15.5456C5.5978 15.4489 5.52376 15.3645 5.43577 15.297L5.3413 15.234L4.97838 15.0227C4.84945 14.9483 4.70298 14.9101 4.55413 14.9101C4.44255 14.9101 4.33258 14.9323 4.23014 14.9746L4.12988 15.0236C4.12172 15.0282 4.11332 15.0332 4.10502 15.0377L3.97824 15.1055L3.97741 15.1039C3.39847 15.4294 2.71562 15.5176 2.07326 15.3458C1.50329 15.1935 1.00631 14.8486 0.664623 14.3739L0.527904 14.1626L0.341472 13.8394L0.340641 13.8387C0.00379576 13.2546 -0.0877825 12.5609 0.0862528 11.9096C0.259338 11.2624 0.680965 10.7095 1.25874 10.3709L1.39794 10.2872L1.49075 10.2251C1.57911 10.1572 1.65361 10.0721 1.7095 9.97485C1.78391 9.84529 1.82279 9.69833 1.82219 9.54891L1.82219 9.11804L1.81474 9.00782C1.79974 8.89845 1.76287 8.7923 1.70702 8.69625C1.65118 8.60037 1.57748 8.51637 1.48992 8.44934L1.39794 8.38799L1.35155 8.35906L1.22477 8.27455C0.664945 7.9343 0.255834 7.39149 0.0862528 6.75732C-0.0877825 6.10603 0.00380426 5.41229 0.340641 4.82832L0.341472 4.82666L0.527904 4.50433L0.664623 4.29303C1.00631 3.81833 1.50329 3.47349 2.07326 3.32107C2.71549 3.14938 3.39855 3.23684 3.97741 3.5622L3.97824 3.56137L4.10502 3.62931L4.12988 3.64341L4.23014 3.69229C4.33258 3.73469 4.44254 3.75688 4.55413 3.75692C4.66587 3.75692 4.77636 3.73476 4.87894 3.69229L4.97838 3.64341L5.3413 3.43294L5.43577 3.36996C5.52376 3.30248 5.5978 3.21798 5.65369 3.12138C5.72806 2.99273 5.76778 2.84654 5.76804 2.69796V2.54549C5.76804 1.87053 6.03577 1.22309 6.51296 0.745753C6.99035 0.26838 7.63843 0 8.3135 0L8.68641 0C9.36148 0 10.0096 0.26838 10.487 0.745753C10.9642 1.22309 11.2319 1.87053 11.2319 2.54549V2.69713Z" fill="#171A1F"/>
</svg>
